<svg width="28" height="26" viewBox="0 0 28 26" fill="none" xmlns="http://www.w3.org/2000/svg">
<path d="M27.5621 4.76258C27.1865 4.29785 26.6282 4.03135 26.0306 4.03135H4.68871L4.49813 2.66549C4.36316 1.69829 3.52492 0.968872 2.54826 0.968872H0.874995C0.391779 0.968872 0 1.36065 0 1.84387C0 2.32708 0.391779 2.71886 0.874995 2.71886H2.54826C2.65676 2.71886 2.74994 2.79991 2.76487 2.90737L5.12676 19.8346C5.26173 20.8019 6.09997 21.5313 7.07663 21.5313H8.0254C7.92827 21.8051 7.8749 22.0995 7.8749 22.4062C7.8749 23.8537 9.05248 25.0312 10.4999 25.0312C11.9473 25.0312 13.1249 23.8537 13.1249 22.4062C13.1249 22.0995 13.0715 21.8051 12.9744 21.5313H17.6503C17.5532 21.8051 17.4998 22.0995 17.4998 22.4062C17.4998 23.8537 18.6774 25.0312 20.1248 25.0312C21.5722 25.0312 22.7498 23.8537 22.7498 22.4062C22.7498 22.0995 22.6964 21.8051 22.5993 21.5313H24.4999C24.9831 21.5313 25.3749 21.1395 25.3749 20.6563C25.3749 20.173 24.9831 19.7813 24.4999 19.7813H7.07668C6.96819 19.7813 6.875 19.7002 6.86007 19.5928L6.6422 18.0313H23.8742C24.7962 18.0313 25.6058 17.3769 25.7995 16.475L27.9558 6.41271C28.081 5.82859 27.9375 5.22714 27.5621 4.76258ZM11.3749 22.4062C11.3749 22.8887 10.9824 23.2812 10.4999 23.2812C10.0175 23.2812 9.62494 22.8887 9.62494 22.4062C9.62494 21.9238 10.0175 21.5313 10.4999 21.5313C10.9824 21.5313 11.3749 21.9237 11.3749 22.4062ZM20.9999 22.4062C20.9999 22.8887 20.6073 23.2812 20.1249 23.2812C19.6424 23.2812 19.2499 22.8887 19.2499 22.4062C19.2499 21.9238 19.6424 21.5313 20.1249 21.5313C20.6073 21.5313 20.9999 21.9237 20.9999 22.4062ZM26.2447 6.04587L24.0884 16.1079C24.0669 16.2083 23.9768 16.2812 23.8742 16.2812H6.39796L4.93289 5.78129H26.0306C26.1171 5.78129 26.171 5.82548 26.201 5.86255C26.2309 5.89958 26.2628 5.96143 26.2447 6.04587Z" fill="white"/>
</svg>
