<svg width="155" height="23" viewBox="0 0 155 23" fill="none" xmlns="http://www.w3.org/2000/svg">
<path d="M3.53064 5.09567L0 19.0906L5.04418 19.1009L8.5751 5.10629L3.53064 5.09567Z" fill="#32414B"/>
<path d="M23.8773 19.1404C23.5553 18.2338 23.3409 17.278 23.2332 16.2712C23.125 15.2658 23.1969 14.2332 23.4488 13.1742L28.9642 13.1857L27.4602 19.1475L32.5044 19.1581L36.035 5.16352L30.9908 5.1529L30.0328 8.95083L25.0123 8.94051C25.27 8.54195 25.5807 8.0897 25.944 7.58347C26.3076 7.07783 26.7927 6.60316 27.4002 6.15888C28.0076 5.71519 28.7657 5.34052 29.6764 5.0349C30.5865 4.72986 31.7171 4.57881 33.0688 4.58147L37.0288 4.58973L36.9189 0.352235L34.4438 0.346925C33.5322 0.345155 32.6463 0.381441 31.7867 0.456373C30.9265 0.5316 30.0723 0.675564 29.2251 0.88856C28.377 1.10215 27.5404 1.41131 26.7151 1.81606C25.8895 2.22141 25.0558 2.7533 24.2135 3.41147C23.469 3.99352 22.788 4.63693 22.1699 5.3417C21.5517 6.04677 21.0029 6.7899 20.5227 7.57197C20.0422 8.35403 19.6316 9.15586 19.2908 9.97599C18.95 10.797 18.6773 11.6139 18.4721 12.4266C18.05 14.0999 17.9016 15.7304 18.0277 17.3196C18.1443 18.797 18.4667 20.1838 18.9887 21.4831H12.7363L16.8296 19.1254C16.0588 17.8795 15.3695 16.5924 14.7617 15.2631C14.1537 13.9341 13.6545 12.5476 13.2643 11.1032C13.8992 10.7672 14.5193 10.3961 15.125 9.99044C15.7305 9.5848 16.2828 9.14082 16.782 8.65819C17.2809 8.17555 17.7129 7.6469 18.0782 7.07193C18.4433 6.49696 18.7131 5.86446 18.8874 5.17385C19.0227 4.63693 19.0727 4.08025 19.0374 3.5044C19.0017 2.92854 18.819 2.40638 18.4895 1.93731C18.1596 1.46855 17.6598 1.07972 16.9915 0.771146C16.3223 0.462863 15.4142 0.307394 14.2671 0.304739L4.98012 0.285858L2.73303 4.51834L10.9119 4.53545C11.1321 4.53574 11.3835 4.53633 11.6663 4.53692C11.949 4.53751 12.2033 4.57262 12.4298 4.64195C12.6558 4.71157 12.835 4.82721 12.9671 4.98829C13.0993 5.14995 13.1247 5.39186 13.0436 5.714C12.9313 6.15947 12.6511 6.59991 12.203 7.03623C11.7546 7.47284 11.2415 7.88644 10.6635 8.27674C10.0855 8.66704 9.50228 9.03078 8.91446 9.36679C8.32636 9.7034 7.83637 9.99428 7.44449 10.2391C7.8684 12.3591 8.43226 14.4094 9.13493 16.3915C9.77238 18.1902 10.5893 19.8862 11.5823 21.4831H0V22.9997H153.142V21.4831H19.6414L23.8773 19.1404Z" fill="#32414B"/>
<path d="M47.727 4.66968C48.1333 4.70921 48.5093 4.84078 48.8542 5.06322C49.1987 5.28683 49.459 5.64055 49.6359 6.12465C49.8122 6.60847 49.7883 7.29554 49.5637 8.18529C49.3508 9.0296 48.999 9.84647 48.5093 10.6356C48.0187 11.4257 47.4315 12.1343 46.7465 12.762C46.0611 13.3907 45.3079 13.899 44.4864 14.289C43.6645 14.6784 42.8161 14.8958 41.9406 14.9398L44.4027 5.18063L39.3585 5.1703L35.8279 19.1652L39.929 19.1734C41.532 19.1767 43.1269 18.915 44.7143 18.3884C46.3012 17.8618 47.7686 17.1093 49.1168 16.1293C50.4641 15.1498 51.642 13.9548 52.6503 12.5446C53.6585 11.1342 54.3875 9.53908 54.8365 7.759C55.0766 6.8076 55.1744 5.89071 55.1297 5.00746C55.0852 4.1248 54.8503 3.34155 54.4258 2.65713C54.0005 1.9733 53.3457 1.42282 52.4604 1.00627C51.5748 0.59001 50.4168 0.380555 48.9869 0.377309L40.8077 0.360199L38.5606 4.59297L46.7398 4.61008C46.9912 4.61067 47.3201 4.63073 47.727 4.66968Z" fill="#32414B"/>
<path d="M56.2645 15.4189C56.5363 16.2411 56.9198 16.9633 57.4156 17.5863C57.9107 18.2091 58.5205 18.7056 59.2448 19.0758C59.9688 19.4458 60.8262 19.6319 61.8162 19.6343C62.8063 19.636 63.7563 19.4537 64.6661 19.087C65.5763 18.7206 66.4356 18.2274 67.2448 17.6073C68.0536 16.9869 68.8013 16.267 69.4878 15.4469C70.1741 14.6274 70.7919 13.7689 71.3402 12.8718C71.8884 11.9744 72.3588 11.0619 72.7504 10.1341C73.1414 9.20602 73.4418 8.32779 73.651 7.49911C73.9067 6.48635 74.008 5.52344 73.9557 4.6098C73.9032 3.69646 73.6279 2.90111 73.1307 2.22466C72.6329 1.54821 71.8726 1.00923 70.8502 0.607723C69.8272 0.206807 68.4672 0.00413634 66.7704 0.00059624C65.0733 -0.00294386 63.612 0.193826 62.3882 0.590317C61.1638 0.987103 60.1327 1.52254 59.2944 2.19605C58.4561 2.86984 57.7806 3.66312 57.2672 4.57528C56.7542 5.48774 56.3701 6.45006 56.1144 7.46282C55.9052 8.2915 55.7621 9.17033 55.685 10.099C55.6077 11.0277 55.6172 11.941 55.7127 12.8399C55.8079 13.7371 55.9918 14.5973 56.2645 15.4189ZM60.9358 10.3164C60.9699 9.43377 61.0954 8.56291 61.3121 7.70355C61.4708 7.07459 61.6699 6.54918 61.91 6.12732C62.1501 5.70546 62.4445 5.36473 62.7933 5.10423C63.1419 4.84433 63.5537 4.66084 64.029 4.55404C64.5037 4.44784 65.0476 4.39503 65.6605 4.39651C66.2732 4.39769 66.79 4.45256 67.2107 4.56083C67.6315 4.66939 67.9503 4.85436 68.1673 5.11544C68.3843 5.37712 68.5064 5.71874 68.5338 6.14119C68.5607 6.56364 68.4952 7.08905 68.3364 7.7183C68.1197 8.57795 67.8058 9.44823 67.3946 10.3303C66.9833 11.2124 66.5294 12.013 66.0334 12.7343C65.537 13.4544 65.015 14.0444 64.4667 14.5038C63.9182 14.9631 63.4086 15.1929 62.937 15.1917C62.4655 15.1906 62.0719 14.9596 61.7559 14.4979C61.4397 14.0371 61.2154 13.4456 61.0836 12.7237C60.9508 12.0012 60.9018 11.1994 60.9358 10.3164Z" fill="#32414B"/>
<path d="M75.7178 7.24983C75.8447 7.61859 76.0069 7.9723 76.2049 8.31008C76.4028 8.64816 76.61 8.97887 76.8273 9.30161L79.2926 13.0836C79.419 13.268 79.5494 13.468 79.6836 13.6831C79.8178 13.8981 79.8524 14.1362 79.7863 14.3973C79.7398 14.5811 79.6313 14.7156 79.4608 14.7994C79.29 14.8832 79.1021 14.9442 78.8958 14.9823C78.6895 15.0206 78.4814 15.0354 78.2713 15.0271C78.0612 15.0189 77.893 15.0144 77.7678 15.0141L73.1948 15.005L73.3048 19.2428L79.1737 19.2549C80.2264 19.2572 81.1287 19.1091 81.8802 18.8112C82.631 18.5132 83.2543 18.1462 83.7498 17.7096C84.245 17.2733 84.6276 16.8022 84.8966 16.2957C85.1658 15.7897 85.3525 15.3301 85.457 14.9156C85.5733 14.4548 85.6154 14.0214 85.5845 13.6146C85.5536 13.2078 85.4705 12.8196 85.3358 12.4514C85.2007 12.0821 85.0336 11.7328 84.8339 11.4024C84.6345 11.0719 84.4259 10.7448 84.2086 10.422L81.6548 6.61703C81.5281 6.43265 81.398 6.23293 81.2638 6.01758C81.1293 5.80252 81.095 5.56474 81.161 5.30336C81.2072 5.11928 81.3157 4.98534 81.4866 4.90127C81.6571 4.81748 81.8452 4.75612 82.0516 4.71807C82.2576 4.6806 82.466 4.66556 82.676 4.67352C82.8864 4.68208 83.0541 4.68591 83.1799 4.68591L87.4227 4.69476L87.3128 0.457266L81.8914 0.445761C80.8387 0.443696 79.9367 0.591495 79.1858 0.889158C78.4341 1.18712 77.8108 1.55411 77.3159 1.99072C76.8201 2.42733 76.4383 2.89846 76.1691 3.40469C75.9002 3.91063 75.7132 4.37084 75.6087 4.78533C75.4927 5.24584 75.4497 5.6795 75.4809 6.08602C75.5112 6.49342 75.5905 6.88107 75.7178 7.24983Z" fill="#32414B"/>
<path d="M89.333 19.2767L94.3775 19.287L98.0532 4.71688L103.428 4.72809L103.317 0.490596L89.8821 0.46257L87.6348 4.69534L93.0091 4.70655L89.333 19.2767Z" fill="#32383C"/>
<path d="M102.355 10.1955C102.277 11.1239 102.287 12.0375 102.382 12.9364C102.478 13.8347 102.662 14.6949 102.934 15.5159C103.206 16.3381 103.59 17.0606 104.086 17.6837C104.581 18.3067 105.19 18.8026 105.915 19.1729C106.639 19.5431 107.496 19.7292 108.486 19.7313C109.476 19.7334 110.426 19.5508 111.336 19.1844C112.246 18.818 113.106 18.3247 113.915 17.7043C114.723 17.0839 115.471 16.3644 116.158 15.544C116.844 14.7247 117.462 13.866 118.01 12.9688C118.558 12.0717 119.028 11.1593 119.42 10.2312C119.811 9.30307 120.112 8.42483 120.321 7.59615C120.576 6.58339 120.678 5.62049 120.625 4.70685C120.573 3.7935 120.298 2.99816 119.8 2.32171C119.303 1.64525 118.543 1.10627 117.52 0.704768C116.497 0.303853 115.137 0.101182 113.44 0.0976421C111.743 0.094102 110.282 0.290872 109.058 0.687363C107.833 1.08415 106.803 1.61959 105.964 2.29309C105.126 2.96689 104.45 3.76017 103.937 4.67233C103.424 5.58479 103.04 6.54711 102.784 7.55987C102.575 8.38795 102.432 9.26678 102.355 10.1955ZM107.606 10.4135C107.64 9.53082 107.766 8.65995 107.983 7.80059C108.141 7.17164 108.34 6.64623 108.581 6.22437C108.82 5.80251 109.115 5.46177 109.464 5.20128C109.812 4.94138 110.224 4.75788 110.699 4.65109C111.174 4.54489 111.718 4.49208 112.331 4.49356C112.944 4.49474 113.46 4.54961 113.881 4.65787C114.302 4.76644 114.621 4.95141 114.838 5.21249C115.055 5.47416 115.177 5.81578 115.204 6.23823C115.231 6.66068 115.165 7.18609 115.006 7.81535C114.79 8.675 114.476 9.54527 114.064 10.4273C113.653 11.3094 113.199 12.1104 112.703 12.8314C112.207 13.5518 111.685 14.1418 111.136 14.6008C110.588 15.0604 110.078 15.29 109.606 15.2891C109.135 15.2879 108.742 15.0566 108.426 14.5949C108.109 14.1341 107.885 13.5426 107.753 12.8207C107.621 12.0986 107.572 11.2964 107.606 10.4135Z" fill="#32414B"/>
<path d="M124.76 19.3505L127.757 7.47343H127.804L131.534 13.814L130.134 19.362L135.179 19.3723L139.923 0.566702L134.878 0.556376L133.264 6.95539L129.269 0.544576L124.46 0.534546L119.716 19.3401L124.76 19.3505Z" fill="#32414B"/>
<path d="M147.245 4.81955L155 4.83577L154.89 0.597982L143.27 0.573792L138.525 19.3791L150.664 19.4044L152.911 15.1714L144.638 15.154L145.474 11.8399L151.343 11.8519L153.59 7.61917L146.543 7.60442L147.245 4.81955Z" fill="#32414B"/>
</svg>
