<svg width="203" height="23" viewBox="0 0 203 23" fill="none" xmlns="http://www.w3.org/2000/svg">
<path d="M4.61144 5.0957L0 19.0906L6.58832 19.1009L11.2001 5.10632L4.61144 5.0957Z" fill="#32414B"/>
<path d="M31.1867 19.1407C30.7661 18.2341 30.486 17.2783 30.3454 16.2714C30.2041 15.266 30.298 14.2335 30.627 13.1744L37.8308 13.1859L35.8664 19.1478L42.4547 19.1584L47.0661 5.16379L40.4778 5.15317L39.2265 8.95111L32.6691 8.94078C33.0056 8.54223 33.4116 8.08998 33.8861 7.58375C34.361 7.0781 34.9946 6.60343 35.788 6.15915C36.5814 5.71546 37.5715 5.3408 38.761 5.03517C39.9498 4.73013 41.4265 4.57909 43.1919 4.58174L48.3642 4.59L48.2206 0.35251L44.9879 0.347199C43.7972 0.345429 42.6401 0.381715 41.5173 0.456647C40.3938 0.531874 39.2781 0.675838 38.1715 0.888834C37.0638 1.10242 35.9711 1.41159 34.8932 1.81634C33.8149 2.22168 32.726 2.75358 31.6258 3.41174C30.6534 3.99379 29.7639 4.63721 28.9566 5.34198C28.1492 6.04705 27.4323 6.79017 26.8052 7.57224C26.1776 8.35431 25.6413 9.15614 25.1962 9.97626C24.751 10.7973 24.3949 11.6141 24.1269 12.4269C23.5755 14.1002 23.3817 15.7307 23.5464 17.3199C23.6987 18.7973 24.1197 20.1841 24.8015 21.4833H16.6351L21.9815 19.1256C20.9748 17.8798 20.0744 16.5927 19.2806 15.2634C18.4865 13.9344 17.8344 12.5478 17.3249 11.1035C18.154 10.7675 18.964 10.3964 19.7551 9.99072C20.5459 9.58508 21.2673 9.14109 21.9193 8.65846C22.571 8.17583 23.1352 7.64717 23.6124 7.0722C24.0892 6.49723 24.4416 5.86473 24.6692 5.17412C24.846 4.63721 24.9112 4.08053 24.8652 3.50467C24.8185 2.92881 24.5799 2.40665 24.1495 1.93759C23.7187 1.46882 23.0659 1.08 22.193 0.771421C21.3189 0.463138 20.1328 0.307668 18.6346 0.305013L6.50464 0.286133L3.56968 4.51861L14.2523 4.53572C14.5399 4.53602 14.8682 4.53661 15.2376 4.5372C15.6069 4.53779 15.939 4.57289 16.2348 4.64222C16.53 4.71184 16.764 4.82749 16.9366 4.98856C17.1093 5.15022 17.1424 5.39213 17.0365 5.71428C16.8899 6.15974 16.5239 6.60019 15.9386 7.03651C15.3529 7.47312 14.6827 7.88672 13.9278 8.27701C13.1729 8.66731 12.4111 9.03105 11.6434 9.36707C10.8752 9.70367 10.2353 9.99455 9.72342 10.2394C10.2771 12.3593 11.0136 14.4096 11.9313 16.3918C12.7639 18.1905 13.8309 19.8865 15.1279 21.4833H0V23H200.023V21.4833H25.6541L31.1867 19.1407Z" fill="#32414B"/>
<path d="M62.3371 4.66983C62.8678 4.70936 63.3589 4.84093 63.8093 5.06337C64.2593 5.28698 64.5993 5.6407 64.8304 6.12481C65.0606 6.60862 65.0294 7.29569 64.7361 8.18544C64.458 9.02975 63.9985 9.84663 63.3589 10.6358C62.7182 11.4258 61.9512 12.1344 61.0564 12.7622C60.1612 13.3909 59.1775 13.8992 58.1045 14.2892C57.031 14.6786 55.9229 14.896 54.7794 14.9399L57.9952 5.18078L51.4069 5.17046L46.7954 19.1653L52.152 19.1736C54.2457 19.1768 56.3289 18.9152 58.4022 18.3886C60.4748 17.862 62.3914 17.1094 64.1523 16.1294C65.9121 15.15 67.4506 13.9549 68.7675 12.5448C70.0844 11.1343 71.0365 9.53923 71.623 7.75915C71.9365 6.80775 72.0643 5.89087 72.0059 5.00761C71.9478 4.12495 71.641 3.3417 71.0866 2.65728C70.5311 1.97346 69.6759 1.42297 68.5195 1.00642C67.3628 0.590163 65.8503 0.380707 63.9827 0.377462L53.2997 0.360352L50.3647 4.59313L61.0477 4.61024C61.376 4.61083 61.8057 4.63089 62.3371 4.66983Z" fill="#32414B"/>
<path d="M73.4884 15.4193C73.8435 16.2415 74.3444 16.9637 74.9919 17.5867C75.6387 18.2095 76.4351 18.706 77.3811 19.0762C78.3268 19.4462 79.4466 19.6323 80.7397 19.6347C82.0329 19.6365 83.2737 19.4541 84.4621 19.0874C85.6508 18.721 86.7732 18.2278 87.8301 17.6077C88.8866 16.9873 89.8631 16.2675 90.7598 15.4473C91.6561 14.6278 92.463 13.7693 93.1791 12.8722C93.8953 11.9748 94.5096 11.0623 95.0211 10.1345C95.5318 9.20645 95.9241 8.32821 96.1974 7.49954C96.5313 6.48677 96.6636 5.52387 96.5954 4.61023C96.5268 3.69688 96.1672 2.90154 95.5178 2.22509C94.8677 1.54864 93.8745 1.00966 92.5392 0.60815C91.203 0.207234 89.4267 0.00456358 87.2105 0.00102349C84.9939 -0.00251661 83.0852 0.194254 81.4868 0.590744C79.8876 0.98753 78.5409 1.52297 77.446 2.19647C76.351 2.87027 75.4687 3.66355 74.7982 4.57571C74.1281 5.48817 73.6264 6.45049 73.2924 7.46325C73.0192 8.29193 72.8322 9.17076 72.7316 10.0994C72.6306 11.0281 72.643 11.9415 72.7678 12.8404C72.8922 13.7375 73.1323 14.5977 73.4884 15.4193ZM79.5898 10.3169C79.6343 9.4342 79.7982 8.56333 80.0813 7.70398C80.2886 7.07502 80.5486 6.54961 80.8622 6.12775C81.1758 5.70589 81.5603 5.36515 82.0159 5.10466C82.4712 4.84476 83.0091 4.66126 83.6298 4.55447C84.2499 4.44827 84.9603 4.39546 85.7609 4.39694C86.561 4.39812 87.2361 4.45299 87.7856 4.56126C88.3351 4.66982 88.7516 4.85479 89.0351 5.11587C89.3185 5.37754 89.4779 5.71916 89.5137 6.14161C89.5488 6.56406 89.4632 7.08947 89.2559 7.71873C88.9729 8.57838 88.5628 9.44865 88.0257 10.3307C87.4886 11.2128 86.8957 12.0135 86.2478 12.7347C85.5996 13.4549 84.9177 14.0449 84.2016 14.5042C83.4851 14.9635 82.8195 15.1933 82.2036 15.1922C81.5878 15.191 81.0737 14.96 80.661 14.4983C80.2479 14.0375 79.955 13.446 79.7828 12.7241C79.6094 12.0017 79.5453 11.1998 79.5898 10.3169Z" fill="#32414B"/>
<path d="M98.8966 7.24989C99.0624 7.61865 99.2743 7.97236 99.5328 8.31014C99.7914 8.64822 100.062 8.97893 100.346 9.30167L103.566 13.0837C103.731 13.268 103.901 13.4681 104.076 13.6831C104.252 13.8982 104.297 14.1363 104.211 14.3973C104.15 14.5811 104.008 14.7157 103.785 14.7994C103.562 14.8832 103.317 14.9443 103.047 14.9823C102.778 15.0207 102.506 15.0354 102.232 15.0272C101.957 15.0189 101.738 15.0145 101.574 15.0142L95.6013 15.0051L95.7449 19.2428L103.41 19.2549C104.785 19.2573 105.964 19.1092 106.945 18.8112C107.926 18.5133 108.74 18.1463 109.387 17.7097C110.034 17.2734 110.534 16.8022 110.885 16.2957C111.237 15.7898 111.481 15.3302 111.617 14.9157C111.769 14.4549 111.824 14.0215 111.784 13.6147C111.743 13.2079 111.635 12.8196 111.459 12.4515C111.282 12.0821 111.064 11.7328 110.803 11.4024C110.543 11.072 110.27 10.7448 109.987 10.4221L106.651 6.61709C106.486 6.43271 106.316 6.23299 106.14 6.01764C105.965 5.80258 105.92 5.5648 106.006 5.30342C106.066 5.11934 106.208 4.9854 106.431 4.90133C106.654 4.81755 106.9 4.75618 107.169 4.71813C107.438 4.68066 107.711 4.66562 107.985 4.67358C108.26 4.68214 108.479 4.68597 108.643 4.68597L114.185 4.69482L114.041 0.457327L106.96 0.445822C105.585 0.443757 104.407 0.591556 103.426 0.889219C102.444 1.18718 101.63 1.55417 100.984 1.99078C100.336 2.42739 99.8377 2.89852 99.4861 3.40475C99.1348 3.91069 98.8906 4.3709 98.7541 4.78539C98.6026 5.2459 98.5465 5.67956 98.5872 6.08608C98.6267 6.49349 98.7304 6.88113 98.8966 7.24989Z" fill="#32414B"/>
<path d="M116.68 19.277L123.269 19.2873L128.07 4.7172L135.089 4.72841L134.945 0.490916L117.397 0.462891L114.462 4.69567L121.481 4.70688L116.68 19.277Z" fill="#32383C"/>
<path d="M133.688 10.1955C133.587 11.1239 133.599 12.0376 133.724 12.9364C133.849 13.8347 134.089 14.695 134.445 15.516C134.8 16.3382 135.301 17.0607 135.948 17.6837C136.596 18.3068 137.392 18.8027 138.338 19.1729C139.283 19.5432 140.403 19.7293 141.696 19.7314C142.989 19.7334 144.23 19.5508 145.419 19.1844C146.607 18.818 147.73 18.3248 148.787 17.7044C149.843 17.084 150.82 16.3644 151.716 15.544C152.612 14.7248 153.419 13.866 154.136 12.9689C154.852 12.0718 155.466 11.1593 155.978 10.2312C156.488 9.30313 156.881 8.42489 157.154 7.59622C157.487 6.58345 157.62 5.62055 157.551 4.70691C157.483 3.79356 157.124 2.99822 156.474 2.32177C155.824 1.64531 154.831 1.10634 153.496 0.70483C152.159 0.303914 150.383 0.101243 148.166 0.0977032C145.95 0.0941631 144.042 0.290933 142.443 0.687424C140.844 1.08421 139.497 1.61965 138.402 2.29315C137.307 2.96695 136.425 3.76023 135.754 4.67239C135.084 5.58485 134.582 6.54717 134.249 7.55993C133.976 8.38802 133.789 9.26685 133.688 10.1955ZM140.547 10.4135C140.591 9.53088 140.755 8.66001 141.038 7.80066C141.245 7.1717 141.506 6.64629 141.819 6.22443C142.132 5.80257 142.517 5.46183 142.973 5.20134C143.428 4.94144 143.966 4.75794 144.587 4.65115C145.207 4.54495 145.917 4.49214 146.717 4.49362C147.518 4.4948 148.193 4.54967 148.742 4.65794C149.292 4.7665 149.708 4.95147 149.992 5.21255C150.275 5.47422 150.435 5.81584 150.471 6.23829C150.506 6.66074 150.42 7.18615 150.212 7.81541C149.929 8.67506 149.519 9.54533 148.982 10.4274C148.445 11.3095 147.852 12.1104 147.204 12.8314C146.556 13.5518 145.874 14.1419 145.158 14.6009C144.441 15.0605 143.776 15.29 143.159 15.2891C142.544 15.288 142.03 15.0567 141.617 14.595C141.204 14.1342 140.911 13.5427 140.739 12.8208C140.566 12.0986 140.502 11.2965 140.547 10.4135Z" fill="#32414B"/>
<path d="M162.952 19.3506L166.866 7.47355H166.927L171.799 13.8142L169.971 19.3621L176.56 19.3724L182.757 0.566824L176.168 0.556499L174.06 6.95552L168.841 0.544698L162.56 0.534668L156.363 19.3402L162.952 19.3506Z" fill="#32414B"/>
<path d="M192.32 4.81997L202.449 4.8362L202.305 0.598409L187.127 0.574219L180.931 19.3795L196.786 19.4049L199.721 15.1718L188.915 15.1544L190.007 11.8403L197.673 11.8524L200.608 7.6196L191.403 7.60485L192.32 4.81997Z" fill="#32414B"/>
</svg>
