<svg width="26" height="26" viewBox="0 0 26 26" fill="none" xmlns="http://www.w3.org/2000/svg">
<path fill-rule="evenodd" clip-rule="evenodd" d="M9.7488 0.0279255C9.67395 0.0459935 9.3065 0.110134 8.93224 0.170481C5.1817 0.774854 1.88217 3.56861 0.560249 7.25908C0.137272 8.44 0 9.31422 0 10.8275C0 11.8484 0.0452733 12.4358 0.166941 12.9956C1.56081 19.41 8.07259 23.1416 14.2699 21.0773C15.2622 20.7468 16.0876 20.3392 16.8485 19.8036C17.0857 19.6367 17.3095 19.5001 17.3459 19.5001C17.3823 19.5001 18.8417 20.9207 20.5892 22.6568C22.3367 24.3931 23.8813 25.8566 24.0218 25.9091C24.4186 26.0574 24.8896 26.0224 25.2511 25.8177C25.6799 25.5749 25.9064 25.2611 25.9647 24.8288C26.0769 23.9955 26.1289 24.0633 22.7171 20.6029C20.9738 18.8348 19.5475 17.3605 19.5475 17.3268C19.5475 17.2931 19.73 16.9944 19.9532 16.6632C21.7887 13.9376 22.2223 10.1757 21.0556 7.09737C19.7349 3.61252 16.8198 1.07135 13.1965 0.246186C12.4933 0.086014 10.1282 -0.0636789 9.7488 0.0279255ZM12.7882 3.12965C15.7409 3.93476 17.8128 6.02061 18.6027 8.98312C18.8567 9.93584 18.8376 11.8024 18.5634 12.8139C17.8121 15.5859 15.6164 17.7722 12.8325 18.5202C11.8166 18.7932 9.94205 18.8123 8.98523 18.5593C4.3303 17.3288 1.79153 12.7134 3.30425 8.23122C3.67687 7.12718 4.31179 6.13037 5.21599 5.23005C6.41125 4.03991 7.77046 3.32189 9.43125 3.00335C10.2825 2.84002 11.9571 2.90308 12.7882 3.12965Z" fill="#C4C4C4"/>
</svg>
