<svg width="5" height="7" viewBox="0 0 5 7" fill="none" xmlns="http://www.w3.org/2000/svg">
<path d="M4.22182 6.88811L4.45271 6.65882C4.52481 6.58666 4.56454 6.49065 4.56454 6.38804C4.56454 6.28548 4.52481 6.18936 4.45271 6.1172L1.83696 3.50157L4.45561 0.882918C4.52772 0.810868 4.56738 0.714746 4.56738 0.612192C4.56738 0.509638 4.52772 0.413459 4.45561 0.341352L4.22614 0.112001C4.07692 -0.0373337 3.83386 -0.0373337 3.68464 0.112001L0.555611 3.22981C0.483561 3.30186 0.432796 3.39787 0.432796 3.50134L0.432796 3.50253C0.432796 3.60514 0.483618 3.70115 0.55561 3.7732L3.67616 6.88811C3.74821 6.96028 3.84712 6.99989 3.94967 7C4.05228 7 4.14983 6.96028 4.22182 6.88811Z" fill="#32383C"/>
</svg>
