<svg width="5" height="7" viewBox="0 0 5 7" fill="none" xmlns="http://www.w3.org/2000/svg">
<path d="M0.778181 6.88811L0.547293 6.65882C0.475187 6.58666 0.435463 6.49065 0.435463 6.38804C0.435463 6.28548 0.475187 6.18936 0.547293 6.1172L3.16304 3.50157L0.544391 0.882918C0.472284 0.810868 0.432617 0.714746 0.432617 0.612192C0.432617 0.509638 0.472284 0.413459 0.54439 0.341352L0.773856 0.112001C0.923076 -0.0373337 1.16614 -0.0373337 1.31536 0.112001L4.44439 3.22981C4.51644 3.30186 4.5672 3.39787 4.5672 3.50134L4.5672 3.50253C4.5672 3.60514 4.51638 3.70115 4.44439 3.7732L1.32384 6.88811C1.25179 6.96028 1.15288 6.99989 1.05033 7C0.947719 7 0.850174 6.96028 0.778181 6.88811Z" fill="#32383C"/>
</svg>
