<svg width="146" height="146" viewBox="0 0 146 146" fill="none" xmlns="http://www.w3.org/2000/svg">
<mask id="path-1-inside-1_1_3083" fill="white">
<path fill-rule="evenodd" clip-rule="evenodd" d="M4.99447 0.244474C3.03625 0.83974 1.53197 2.09616 0.532165 3.97123C0.0314046 4.91048 0 5.89765 0 20.6569C0 36.1855 0.00628094 36.3558 0.616101 37.4853C1.42291 38.9787 2.55576 40.026 4.1397 40.7422C5.3582 41.2933 5.97601 41.3235 16.1305 41.3278C22.6453 41.3307 27.2529 41.2171 27.9001 41.0375C29.4715 40.6016 31.279 39.0896 32.0741 37.546C33.4659 34.8441 33.4879 34.9573 28.436 18.9778C25.9122 10.9946 23.5366 3.93529 23.1572 3.2904C22.7778 2.64522 22.0646 1.8212 21.5721 1.45896C19.7606 0.126961 18.7737 -0.0236381 12.0263 0.00260269C8.55233 0.0160083 5.38789 0.124965 4.99447 0.244474ZM35.2571 0.240481C32.2996 1.15577 30.4628 3.44071 30.2138 6.51316C30.0962 7.96183 30.511 9.4507 34.7646 22.8486C38.1632 33.554 39.6557 37.8669 40.2165 38.6008C40.6407 39.157 41.594 39.9676 42.3345 40.4025C43.6767 41.1906 43.7012 41.1938 50.2474 41.3358C53.8689 41.4145 57.0133 41.6062 57.2589 41.7636C57.5038 41.9205 62.5785 45.4644 68.536 49.639C74.4937 53.8136 79.8177 57.4716 80.3672 57.7679C81.27 58.2548 82.1741 58.3153 89.7321 58.394C99.5375 58.4961 100.363 58.3638 102.428 56.3584C104.643 54.2083 104.671 53.9984 104.575 40.5839C104.496 29.5856 104.459 28.8652 103.921 27.8036C103.245 26.4721 76.615 1.7228 74.8001 0.739341C73.6641 0.123824 73.5601 0.120401 54.8153 0.0699159C44.4518 0.0419638 35.6505 0.11869 35.2571 0.240481ZM97.7808 0.244474C94.4573 1.25446 92.4078 4.24476 92.7155 7.63467C92.7986 8.54968 93.0604 9.67232 93.2971 10.1298C93.769 11.0417 96.2269 13.4855 101.935 18.7191C106.273 22.6969 107.337 23.2522 110.131 22.9955C111.175 22.8997 118.113 21.0026 126.875 18.4168C143.198 13.5996 143.469 13.4886 145.025 10.9727C145.8 9.72167 145.889 9.34032 145.889 7.27358C145.889 5.26929 145.786 4.79468 145.097 3.6244C144.203 2.105 142.829 0.948126 141.25 0.38509C140.391 0.078758 136.049 0.00545494 119.338 0.0151526C107.875 0.0217128 98.1742 0.124965 97.7808 0.244474ZM18.2509 5.15463C19.1431 5.5608 18.9124 4.92275 23.9814 21.0052C26.9203 30.3298 28.0829 34.4017 27.9535 34.9165C27.5633 36.4698 27.4356 36.487 16.3395 36.487H6.11219L5.41158 35.7867L4.71069 35.0868V20.6569V6.22708L5.41158 5.52714C6.10877 4.83033 6.14046 4.82691 11.8216 4.82691C15.5127 4.82691 17.7856 4.94271 18.2509 5.15463ZM73.5813 5.89651C76.41 8.39736 97.4596 27.8118 98.5676 28.9416L99.781 30.1789V40.878C99.781 48.1116 99.6782 51.8022 99.4641 52.2722C98.9042 53.4998 98.2053 53.6005 90.2431 53.6005C82.8673 53.6005 82.7132 53.5885 81.7633 52.9425C81.2309 52.5805 76.1062 49.0044 70.3749 44.9952C64.6435 40.9864 59.5046 37.4641 58.955 37.1681C58.0831 36.698 57.1079 36.6113 51.2943 36.487C45.0693 36.3538 44.6057 36.3073 44.2194 35.7785C43.9919 35.467 43.1733 33.2208 42.4005 30.787C36.9589 13.6512 34.9733 7.22851 34.9733 6.76245C34.9733 6.4681 35.2888 5.91219 35.6742 5.52714L36.3748 4.82691H54.3734H72.3716L73.5813 5.89651ZM140.477 5.52714C141.321 6.36998 141.415 7.89736 140.678 8.79554C140.294 9.26474 136.735 10.4182 125.19 13.8155C116.946 16.2414 109.843 18.2277 109.406 18.2294C108.609 18.2325 105.234 15.3572 99.5669 9.84831C97.2355 7.58191 96.9723 6.75133 98.1979 5.52714L98.8985 4.82691H119.338H139.776L140.477 5.52714ZM125.618 23.8132C112.534 27.6806 111.997 27.9125 110.494 30.3403L109.631 31.7348L109.546 41.9456C109.491 48.5939 109.568 52.5534 109.768 53.2945C110.212 54.9431 111.709 56.7411 113.332 57.5757C115.419 58.6487 118.771 58.6596 130.826 57.633C140.438 56.8144 140.952 56.7414 142.319 55.9981C143.106 55.57 144.079 54.7885 144.482 54.2608C146.033 52.2289 146.061 51.9288 145.971 38.03C145.891 25.5297 145.874 25.1929 145.273 24.0796C144.002 21.7282 141.561 20.2311 139.037 20.2553C138.075 20.2645 133.699 21.4245 125.618 23.8132ZM140.477 25.7782L141.178 26.4781V38.4547V50.4311L140.506 51.2123L139.833 51.9933L130.442 52.7828C125.277 53.2172 119.984 53.5788 118.681 53.5865C116.21 53.6011 114.857 53.1841 114.519 52.3042C114.421 52.0503 114.341 47.6316 114.341 42.485C114.341 33.9918 114.388 33.072 114.841 32.5277C115.214 32.0805 118.246 31.0631 126.76 28.5292C133.041 26.6595 138.539 25.1184 138.978 25.1039C139.471 25.0879 140.045 25.346 140.477 25.7782ZM4.77407 46.5871C3.08365 47.1376 1.72525 48.2442 0.791396 49.831L0 51.1761V76.7038V102.231L0.625523 103.399C1.35382 104.759 2.98372 106.271 4.32384 106.831C5.80928 107.451 8.3993 107.332 9.87275 106.575C10.5665 106.219 13.4166 104.217 16.2059 102.127C20.1389 99.1796 21.4505 98.0312 22.0489 97.0113C23.5229 94.4982 23.5061 94.3804 18.5638 72.7106C16.1131 61.9647 13.9051 52.4396 13.6573 51.5437C12.5733 47.6256 8.52321 45.366 4.77407 46.5871ZM24.0302 46.6427C21.4753 47.4362 19.271 50.4781 19.271 53.2109C19.271 54.4896 27.8736 91.7047 28.4417 92.8841C29.0553 94.1576 30.5464 95.4907 31.9756 96.0432C33.0605 96.4631 42.0525 98.6662 42.68 98.6662C44.0472 98.6662 46.2718 97.6853 47.4227 96.5749C49.2564 94.8056 72.0382 67.0475 72.7439 65.7226C74.0141 63.3373 73.4031 59.8412 71.3587 57.7987C70.4862 56.9271 57.3936 47.7192 55.8145 46.8666C54.8756 46.3598 53.9303 46.3238 40.1122 46.2708C27.7248 46.2231 25.1919 46.2819 24.0302 46.6427ZM8.05128 51.4622C8.38817 51.698 8.79672 52.3076 8.95888 52.817C9.51417 54.5614 18.129 92.8379 18.1247 93.5421C18.1222 93.9288 18.0205 94.4018 17.8989 94.5931C17.777 94.7848 15.4448 96.6137 12.7157 98.6576C7.22106 102.773 6.45108 103.081 5.30252 101.623C4.7144 100.876 4.71069 100.72 4.71069 76.7891C4.71069 60.295 4.80662 52.5283 5.01474 52.1396C5.57004 51.1034 7.06261 50.7702 8.05128 51.4622ZM55.3623 52.3318C62.1905 57.003 67.7015 61.0084 68.1788 61.647C68.5388 62.1285 68.6762 62.629 68.5665 63.0594C68.3173 64.0389 44.1537 93.244 43.3352 93.5549C42.8285 93.7474 41.5837 93.5518 38.5965 92.8096C33.5238 91.5492 33.0945 91.3764 32.7167 90.4414C32.548 90.0235 30.5435 81.4671 28.2621 71.4271C23.8241 51.8934 23.8538 52.0991 25.3581 51.3726C25.7655 51.1758 30.72 51.0654 39.7223 51.0529L53.4641 51.0335L55.3623 52.3318ZM132.613 62.3324C130.179 62.5455 127.612 62.8752 126.907 63.0649C125.337 63.4881 123.292 65.2919 122.602 66.8635C122.327 67.491 120.599 73.3227 118.761 79.8233C115.13 92.667 115.109 92.8073 116.364 95.3156C117.279 97.1422 134.049 113.876 135.881 114.79C137.638 115.667 140.185 115.738 141.903 114.959C143.41 114.275 145.297 112.108 145.72 110.577C145.966 109.684 146.033 103.733 145.972 88.1128C145.889 66.9639 145.886 66.8581 145.273 65.7226C143.935 63.2471 141.568 61.8649 138.751 61.9148C137.809 61.9317 135.047 62.1193 132.613 62.3324ZM82.3235 63.6949C81.7508 63.8994 80.9294 64.3438 80.4983 64.6827C79.3063 65.6193 51.3374 99.6533 50.6291 101.029C49.5008 103.22 49.7255 104.927 51.8901 110.613C53.9246 115.956 54.712 117.223 56.6964 118.347L57.9558 119.06H70.6604H83.365L84.6497 118.297C86.6145 117.129 109.271 94.2298 109.857 92.819C110.117 92.1915 111.619 87.1579 113.192 81.6333C116.26 70.8655 116.478 69.5346 115.518 67.4228C114.858 65.9719 112.722 64.0723 111.256 63.6336C109.581 63.1322 83.7469 63.1869 82.3235 63.6949ZM140.477 67.4211L141.178 68.1211V88.6319C141.178 108.95 141.173 109.15 140.586 109.894C140.141 110.46 139.738 110.646 138.956 110.646C137.975 110.646 137.442 110.172 129.426 102.18C124.755 97.5233 120.793 93.3735 120.621 92.9577C120.352 92.3093 120.781 90.5375 123.634 80.5307C126.044 72.0771 127.13 68.6872 127.574 68.2329C128.115 67.6795 128.728 67.5574 132.756 67.2001C139.514 66.6005 139.66 66.6045 140.477 67.4211ZM110.449 68.7383C110.927 69.1139 111.201 69.6077 111.201 70.0931C111.201 70.9265 105.741 90.2589 105.258 91.1376C105.094 91.4348 99.8378 96.78 93.5766 103.016L82.1927 114.354H70.7483C60.2643 114.354 59.2542 114.312 58.7123 113.854C58.3683 113.564 57.3925 111.393 56.3781 108.66C54.9658 104.855 54.6905 103.845 54.9255 103.33C55.2319 102.658 81.1452 71.0463 82.8893 69.2166L83.9091 68.147H96.8027C109.414 68.147 109.713 68.1598 110.449 68.7383ZM25.8143 101.309C25.1205 101.665 19.3901 105.831 13.08 110.568C3.33403 117.884 1.48658 119.386 0.803672 120.546L0 121.912V131.467V141.022L0.804243 142.389C1.72354 143.951 3.44023 145.31 5.0393 145.74C5.74305 145.929 10.8748 146.006 19.3415 145.953C32.2471 145.873 32.5726 145.857 33.6886 145.255C34.3167 144.917 35.1683 144.275 35.5808 143.829C36.6069 142.721 48.9369 124.182 49.4263 123.012C50.2665 121.003 49.9673 119.33 47.6699 113.192C45.2029 106.6 45.0182 106.206 43.9205 105.188C42.6209 103.982 41.6639 103.626 35.6302 102.103C29.2026 100.481 27.6717 100.358 25.8143 101.309ZM110.057 101.483C108.327 102.05 107.112 103.138 98.0215 112.264C88.7203 121.601 88.3957 121.965 87.9409 123.54C87.5446 124.913 87.4847 126.392 87.5592 132.962C87.6465 140.677 87.6545 140.769 88.3768 142.169C89.1979 143.762 90.9903 145.275 92.5793 145.715C93.2734 145.908 101.724 146.007 116.911 146C135.604 145.991 140.389 145.914 141.25 145.607C142.829 145.044 144.203 143.887 145.097 142.367C145.857 141.077 145.889 140.866 145.889 137.172C145.889 133.752 145.819 133.193 145.265 132.18C144.477 130.738 116.258 102.602 114.937 101.943C113.828 101.388 111.123 101.134 110.057 101.483ZM34.5679 106.835C37.4797 107.563 40.1051 108.365 40.402 108.618C41.0036 109.129 44.9657 119.473 44.9657 120.531C44.9657 121.333 32.1183 140.709 31.4057 140.982C31.1439 141.083 25.3458 141.165 18.521 141.165H6.11219L5.41158 140.465L4.71069 139.765V131.535C4.71069 125.393 4.80119 123.185 5.06756 122.832C5.26398 122.572 10.4886 118.568 16.6781 113.935C23.9774 108.472 28.1676 105.512 28.6027 105.512C28.9719 105.512 31.6564 106.107 34.5679 106.835ZM126.971 120.275L141.178 134.468V137.117C141.178 139.548 141.121 139.822 140.477 140.465L139.776 141.165H116.781C94.2649 141.165 93.7739 141.153 93.2217 140.601C92.9117 140.292 92.5839 139.744 92.4934 139.383C92.4029 139.023 92.3675 135.552 92.4149 131.671L92.5008 124.613L101.789 115.348C109.791 107.364 111.193 106.082 111.92 106.082C112.654 106.082 114.625 107.941 126.971 120.275ZM56.4489 124.471C54.4362 125.098 53.4295 126.121 50.393 130.621C46.8739 135.836 46.4077 136.811 46.3994 138.963C46.3889 141.724 47.7107 143.884 50.2474 145.254C51.3708 145.861 51.6032 145.871 64.5222 145.871C77.4332 145.871 77.6744 145.861 78.797 145.255C80.2919 144.449 81.3402 143.318 82.0571 141.735C82.5761 140.59 82.6392 139.866 82.6449 135.017C82.6509 129.735 82.6304 129.541 81.9118 128.1C81.0056 126.284 79.5376 125.026 77.6744 124.471C75.7359 123.893 58.3007 123.893 56.4489 124.471ZM77.2522 129.716C77.7398 130.318 77.7978 130.888 77.7978 135.077C77.7978 139.674 77.7841 139.778 77.0969 140.465L76.3963 141.165H64.5736C53.0455 141.165 52.7323 141.15 51.9989 140.574C50.6556 139.518 50.9266 138.669 54.1647 133.797C55.7694 131.382 57.3431 129.297 57.662 129.165C57.9806 129.033 62.3961 128.951 67.4739 128.984L76.7069 129.043L77.2522 129.716Z"/>
</mask>
<path fill-rule="evenodd" clip-rule="evenodd" d="M4.99447 0.244474C3.03625 0.83974 1.53197 2.09616 0.532165 3.97123C0.0314046 4.91048 0 5.89765 0 20.6569C0 36.1855 0.00628094 36.3558 0.616101 37.4853C1.42291 38.9787 2.55576 40.026 4.1397 40.7422C5.3582 41.2933 5.97601 41.3235 16.1305 41.3278C22.6453 41.3307 27.2529 41.2171 27.9001 41.0375C29.4715 40.6016 31.279 39.0896 32.0741 37.546C33.4659 34.8441 33.4879 34.9573 28.436 18.9778C25.9122 10.9946 23.5366 3.93529 23.1572 3.2904C22.7778 2.64522 22.0646 1.8212 21.5721 1.45896C19.7606 0.126961 18.7737 -0.0236381 12.0263 0.00260269C8.55233 0.0160083 5.38789 0.124965 4.99447 0.244474ZM35.2571 0.240481C32.2996 1.15577 30.4628 3.44071 30.2138 6.51316C30.0962 7.96183 30.511 9.4507 34.7646 22.8486C38.1632 33.554 39.6557 37.8669 40.2165 38.6008C40.6407 39.157 41.594 39.9676 42.3345 40.4025C43.6767 41.1906 43.7012 41.1938 50.2474 41.3358C53.8689 41.4145 57.0133 41.6062 57.2589 41.7636C57.5038 41.9205 62.5785 45.4644 68.536 49.639C74.4937 53.8136 79.8177 57.4716 80.3672 57.7679C81.27 58.2548 82.1741 58.3153 89.7321 58.394C99.5375 58.4961 100.363 58.3638 102.428 56.3584C104.643 54.2083 104.671 53.9984 104.575 40.5839C104.496 29.5856 104.459 28.8652 103.921 27.8036C103.245 26.4721 76.615 1.7228 74.8001 0.739341C73.6641 0.123824 73.5601 0.120401 54.8153 0.0699159C44.4518 0.0419638 35.6505 0.11869 35.2571 0.240481ZM97.7808 0.244474C94.4573 1.25446 92.4078 4.24476 92.7155 7.63467C92.7986 8.54968 93.0604 9.67232 93.2971 10.1298C93.769 11.0417 96.2269 13.4855 101.935 18.7191C106.273 22.6969 107.337 23.2522 110.131 22.9955C111.175 22.8997 118.113 21.0026 126.875 18.4168C143.198 13.5996 143.469 13.4886 145.025 10.9727C145.8 9.72167 145.889 9.34032 145.889 7.27358C145.889 5.26929 145.786 4.79468 145.097 3.6244C144.203 2.105 142.829 0.948126 141.25 0.38509C140.391 0.078758 136.049 0.00545494 119.338 0.0151526C107.875 0.0217128 98.1742 0.124965 97.7808 0.244474ZM18.2509 5.15463C19.1431 5.5608 18.9124 4.92275 23.9814 21.0052C26.9203 30.3298 28.0829 34.4017 27.9535 34.9165C27.5633 36.4698 27.4356 36.487 16.3395 36.487H6.11219L5.41158 35.7867L4.71069 35.0868V20.6569V6.22708L5.41158 5.52714C6.10877 4.83033 6.14046 4.82691 11.8216 4.82691C15.5127 4.82691 17.7856 4.94271 18.2509 5.15463ZM73.5813 5.89651C76.41 8.39736 97.4596 27.8118 98.5676 28.9416L99.781 30.1789V40.878C99.781 48.1116 99.6782 51.8022 99.4641 52.2722C98.9042 53.4998 98.2053 53.6005 90.2431 53.6005C82.8673 53.6005 82.7132 53.5885 81.7633 52.9425C81.2309 52.5805 76.1062 49.0044 70.3749 44.9952C64.6435 40.9864 59.5046 37.4641 58.955 37.1681C58.0831 36.698 57.1079 36.6113 51.2943 36.487C45.0693 36.3538 44.6057 36.3073 44.2194 35.7785C43.9919 35.467 43.1733 33.2208 42.4005 30.787C36.9589 13.6512 34.9733 7.22851 34.9733 6.76245C34.9733 6.4681 35.2888 5.91219 35.6742 5.52714L36.3748 4.82691H54.3734H72.3716L73.5813 5.89651ZM140.477 5.52714C141.321 6.36998 141.415 7.89736 140.678 8.79554C140.294 9.26474 136.735 10.4182 125.19 13.8155C116.946 16.2414 109.843 18.2277 109.406 18.2294C108.609 18.2325 105.234 15.3572 99.5669 9.84831C97.2355 7.58191 96.9723 6.75133 98.1979 5.52714L98.8985 4.82691H119.338H139.776L140.477 5.52714ZM125.618 23.8132C112.534 27.6806 111.997 27.9125 110.494 30.3403L109.631 31.7348L109.546 41.9456C109.491 48.5939 109.568 52.5534 109.768 53.2945C110.212 54.9431 111.709 56.7411 113.332 57.5757C115.419 58.6487 118.771 58.6596 130.826 57.633C140.438 56.8144 140.952 56.7414 142.319 55.9981C143.106 55.57 144.079 54.7885 144.482 54.2608C146.033 52.2289 146.061 51.9288 145.971 38.03C145.891 25.5297 145.874 25.1929 145.273 24.0796C144.002 21.7282 141.561 20.2311 139.037 20.2553C138.075 20.2645 133.699 21.4245 125.618 23.8132ZM140.477 25.7782L141.178 26.4781V38.4547V50.4311L140.506 51.2123L139.833 51.9933L130.442 52.7828C125.277 53.2172 119.984 53.5788 118.681 53.5865C116.21 53.6011 114.857 53.1841 114.519 52.3042C114.421 52.0503 114.341 47.6316 114.341 42.485C114.341 33.9918 114.388 33.072 114.841 32.5277C115.214 32.0805 118.246 31.0631 126.76 28.5292C133.041 26.6595 138.539 25.1184 138.978 25.1039C139.471 25.0879 140.045 25.346 140.477 25.7782ZM4.77407 46.5871C3.08365 47.1376 1.72525 48.2442 0.791396 49.831L0 51.1761V76.7038V102.231L0.625523 103.399C1.35382 104.759 2.98372 106.271 4.32384 106.831C5.80928 107.451 8.3993 107.332 9.87275 106.575C10.5665 106.219 13.4166 104.217 16.2059 102.127C20.1389 99.1796 21.4505 98.0312 22.0489 97.0113C23.5229 94.4982 23.5061 94.3804 18.5638 72.7106C16.1131 61.9647 13.9051 52.4396 13.6573 51.5437C12.5733 47.6256 8.52321 45.366 4.77407 46.5871ZM24.0302 46.6427C21.4753 47.4362 19.271 50.4781 19.271 53.2109C19.271 54.4896 27.8736 91.7047 28.4417 92.8841C29.0553 94.1576 30.5464 95.4907 31.9756 96.0432C33.0605 96.4631 42.0525 98.6662 42.68 98.6662C44.0472 98.6662 46.2718 97.6853 47.4227 96.5749C49.2564 94.8056 72.0382 67.0475 72.7439 65.7226C74.0141 63.3373 73.4031 59.8412 71.3587 57.7987C70.4862 56.9271 57.3936 47.7192 55.8145 46.8666C54.8756 46.3598 53.9303 46.3238 40.1122 46.2708C27.7248 46.2231 25.1919 46.2819 24.0302 46.6427ZM8.05128 51.4622C8.38817 51.698 8.79672 52.3076 8.95888 52.817C9.51417 54.5614 18.129 92.8379 18.1247 93.5421C18.1222 93.9288 18.0205 94.4018 17.8989 94.5931C17.777 94.7848 15.4448 96.6137 12.7157 98.6576C7.22106 102.773 6.45108 103.081 5.30252 101.623C4.7144 100.876 4.71069 100.72 4.71069 76.7891C4.71069 60.295 4.80662 52.5283 5.01474 52.1396C5.57004 51.1034 7.06261 50.7702 8.05128 51.4622ZM55.3623 52.3318C62.1905 57.003 67.7015 61.0084 68.1788 61.647C68.5388 62.1285 68.6762 62.629 68.5665 63.0594C68.3173 64.0389 44.1537 93.244 43.3352 93.5549C42.8285 93.7474 41.5837 93.5518 38.5965 92.8096C33.5238 91.5492 33.0945 91.3764 32.7167 90.4414C32.548 90.0235 30.5435 81.4671 28.2621 71.4271C23.8241 51.8934 23.8538 52.0991 25.3581 51.3726C25.7655 51.1758 30.72 51.0654 39.7223 51.0529L53.4641 51.0335L55.3623 52.3318ZM132.613 62.3324C130.179 62.5455 127.612 62.8752 126.907 63.0649C125.337 63.4881 123.292 65.2919 122.602 66.8635C122.327 67.491 120.599 73.3227 118.761 79.8233C115.13 92.667 115.109 92.8073 116.364 95.3156C117.279 97.1422 134.049 113.876 135.881 114.79C137.638 115.667 140.185 115.738 141.903 114.959C143.41 114.275 145.297 112.108 145.72 110.577C145.966 109.684 146.033 103.733 145.972 88.1128C145.889 66.9639 145.886 66.8581 145.273 65.7226C143.935 63.2471 141.568 61.8649 138.751 61.9148C137.809 61.9317 135.047 62.1193 132.613 62.3324ZM82.3235 63.6949C81.7508 63.8994 80.9294 64.3438 80.4983 64.6827C79.3063 65.6193 51.3374 99.6533 50.6291 101.029C49.5008 103.22 49.7255 104.927 51.8901 110.613C53.9246 115.956 54.712 117.223 56.6964 118.347L57.9558 119.06H70.6604H83.365L84.6497 118.297C86.6145 117.129 109.271 94.2298 109.857 92.819C110.117 92.1915 111.619 87.1579 113.192 81.6333C116.26 70.8655 116.478 69.5346 115.518 67.4228C114.858 65.9719 112.722 64.0723 111.256 63.6336C109.581 63.1322 83.7469 63.1869 82.3235 63.6949ZM140.477 67.4211L141.178 68.1211V88.6319C141.178 108.95 141.173 109.15 140.586 109.894C140.141 110.46 139.738 110.646 138.956 110.646C137.975 110.646 137.442 110.172 129.426 102.18C124.755 97.5233 120.793 93.3735 120.621 92.9577C120.352 92.3093 120.781 90.5375 123.634 80.5307C126.044 72.0771 127.13 68.6872 127.574 68.2329C128.115 67.6795 128.728 67.5574 132.756 67.2001C139.514 66.6005 139.66 66.6045 140.477 67.4211ZM110.449 68.7383C110.927 69.1139 111.201 69.6077 111.201 70.0931C111.201 70.9265 105.741 90.2589 105.258 91.1376C105.094 91.4348 99.8378 96.78 93.5766 103.016L82.1927 114.354H70.7483C60.2643 114.354 59.2542 114.312 58.7123 113.854C58.3683 113.564 57.3925 111.393 56.3781 108.66C54.9658 104.855 54.6905 103.845 54.9255 103.33C55.2319 102.658 81.1452 71.0463 82.8893 69.2166L83.9091 68.147H96.8027C109.414 68.147 109.713 68.1598 110.449 68.7383ZM25.8143 101.309C25.1205 101.665 19.3901 105.831 13.08 110.568C3.33403 117.884 1.48658 119.386 0.803672 120.546L0 121.912V131.467V141.022L0.804243 142.389C1.72354 143.951 3.44023 145.31 5.0393 145.74C5.74305 145.929 10.8748 146.006 19.3415 145.953C32.2471 145.873 32.5726 145.857 33.6886 145.255C34.3167 144.917 35.1683 144.275 35.5808 143.829C36.6069 142.721 48.9369 124.182 49.4263 123.012C50.2665 121.003 49.9673 119.33 47.6699 113.192C45.2029 106.6 45.0182 106.206 43.9205 105.188C42.6209 103.982 41.6639 103.626 35.6302 102.103C29.2026 100.481 27.6717 100.358 25.8143 101.309ZM110.057 101.483C108.327 102.05 107.112 103.138 98.0215 112.264C88.7203 121.601 88.3957 121.965 87.9409 123.54C87.5446 124.913 87.4847 126.392 87.5592 132.962C87.6465 140.677 87.6545 140.769 88.3768 142.169C89.1979 143.762 90.9903 145.275 92.5793 145.715C93.2734 145.908 101.724 146.007 116.911 146C135.604 145.991 140.389 145.914 141.25 145.607C142.829 145.044 144.203 143.887 145.097 142.367C145.857 141.077 145.889 140.866 145.889 137.172C145.889 133.752 145.819 133.193 145.265 132.18C144.477 130.738 116.258 102.602 114.937 101.943C113.828 101.388 111.123 101.134 110.057 101.483ZM34.5679 106.835C37.4797 107.563 40.1051 108.365 40.402 108.618C41.0036 109.129 44.9657 119.473 44.9657 120.531C44.9657 121.333 32.1183 140.709 31.4057 140.982C31.1439 141.083 25.3458 141.165 18.521 141.165H6.11219L5.41158 140.465L4.71069 139.765V131.535C4.71069 125.393 4.80119 123.185 5.06756 122.832C5.26398 122.572 10.4886 118.568 16.6781 113.935C23.9774 108.472 28.1676 105.512 28.6027 105.512C28.9719 105.512 31.6564 106.107 34.5679 106.835ZM126.971 120.275L141.178 134.468V137.117C141.178 139.548 141.121 139.822 140.477 140.465L139.776 141.165H116.781C94.2649 141.165 93.7739 141.153 93.2217 140.601C92.9117 140.292 92.5839 139.744 92.4934 139.383C92.4029 139.023 92.3675 135.552 92.4149 131.671L92.5008 124.613L101.789 115.348C109.791 107.364 111.193 106.082 111.92 106.082C112.654 106.082 114.625 107.941 126.971 120.275ZM56.4489 124.471C54.4362 125.098 53.4295 126.121 50.393 130.621C46.8739 135.836 46.4077 136.811 46.3994 138.963C46.3889 141.724 47.7107 143.884 50.2474 145.254C51.3708 145.861 51.6032 145.871 64.5222 145.871C77.4332 145.871 77.6744 145.861 78.797 145.255C80.2919 144.449 81.3402 143.318 82.0571 141.735C82.5761 140.59 82.6392 139.866 82.6449 135.017C82.6509 129.735 82.6304 129.541 81.9118 128.1C81.0056 126.284 79.5376 125.026 77.6744 124.471C75.7359 123.893 58.3007 123.893 56.4489 124.471ZM77.2522 129.716C77.7398 130.318 77.7978 130.888 77.7978 135.077C77.7978 139.674 77.7841 139.778 77.0969 140.465L76.3963 141.165H64.5736C53.0455 141.165 52.7323 141.15 51.9989 140.574C50.6556 139.518 50.9266 138.669 54.1647 133.797C55.7694 131.382 57.3431 129.297 57.662 129.165C57.9806 129.033 62.3961 128.951 67.4739 128.984L76.7069 129.043L77.2522 129.716Z" stroke="#32383C" stroke-width="2" mask="url(#path-1-inside-1_1_3083)"/>
<path fill-rule="evenodd" clip-rule="evenodd" d="M24.0307 46.6427C21.4758 47.4362 19.2715 50.4781 19.2715 53.2109C19.2715 54.4895 27.8741 91.7046 28.4422 92.884C29.0557 94.1576 30.5469 95.4907 31.9761 96.0432C33.061 96.4631 42.053 98.6661 42.6805 98.6661C44.0477 98.6661 46.2723 97.6853 47.4231 96.5749C49.2569 94.8056 72.0386 67.0474 72.7444 65.7226C74.0146 63.3372 73.4036 59.8412 71.3592 57.7987C70.4867 56.9271 57.3941 47.7191 55.815 46.8666C54.876 46.3597 53.9308 46.3238 40.1127 46.2708C27.7253 46.2231 25.1924 46.2819 24.0307 46.6427ZM55.3628 52.3318C62.191 57.0029 67.702 61.0084 68.1793 61.647C68.5393 62.1284 68.6766 62.629 68.567 63.0594C68.3178 64.0389 44.1542 93.244 43.3357 93.5549C42.8289 93.7474 41.5842 93.5518 38.597 92.8096C33.5243 91.5492 33.0949 91.3763 32.7172 90.4414C32.5485 90.0235 30.544 81.467 28.2626 71.4271C23.8246 51.8934 23.8543 52.0991 25.3586 51.3726C25.766 51.1758 30.7205 51.0654 39.7227 51.0528L53.4645 51.0335L55.3628 52.3318Z" fill="#32383C"/>
</svg>
