<svg width="140" height="140" viewBox="0 0 140 140" fill="none" xmlns="http://www.w3.org/2000/svg">
<mask id="path-1-inside-1_1_3081" fill="white">
<path fill-rule="evenodd" clip-rule="evenodd" d="M78.2068 0.172681C76.8148 0.393995 74.1996 1.45543 72.8718 2.33795C72.1195 2.83803 55.9222 18.8564 36.8779 37.9343C-0.417794 75.2951 1.38325 73.3547 0.379446 77.2606C-0.459652 80.5256 0.118442 84.4543 1.86093 87.3295C2.51207 88.4035 10.1239 96.1848 27.2979 113.333C50.075 136.076 51.931 137.862 53.5838 138.629C58.0852 140.718 63.007 140.408 67.0367 137.781C67.8433 137.255 74.3309 130.978 81.5583 123.732C94.194 111.063 94.6222 110.599 94.6222 109.596C94.6222 108.257 94.2608 107.611 93.2083 107.066C91.4494 106.157 91.5864 106.043 77.3885 120.19C62.6079 134.919 63.201 134.447 59.466 134.447C55.8664 134.447 57.1927 135.617 30.5651 108.946C7.45145 85.7953 6.56721 84.8723 5.98337 83.29C5.51937 82.0322 5.40774 81.261 5.50596 79.9905C5.77599 76.5037 3.78262 78.6651 41.214 41.2657C69.0134 13.4901 75.8701 6.77627 76.9757 6.24939L78.3436 5.59748L97.4981 5.52198L116.653 5.44647L118.01 6.82469L119.368 8.20292L115.71 11.8676L112.053 15.5326L110.045 15.5531C107.471 15.5796 105.145 16.3431 102.784 17.9355C100.669 19.3625 99.1178 21.2495 97.8732 23.9091C97.1077 25.5445 96.9742 26.1636 96.867 28.5731C96.6725 32.9521 97.9121 36.2734 100.832 39.1924C103.753 42.1138 107.084 43.3569 111.428 43.147C115.164 42.9665 117.937 41.7669 120.467 39.237C122.913 36.7916 124.183 33.9361 124.376 30.4525L124.515 27.9508L128.169 24.3041L131.824 20.6578L133.202 22.0152L134.58 23.3727L134.505 42.5255L134.429 61.6784L133.799 63.0462C133.295 64.1407 130.513 67.075 119.876 77.7323L106.583 91.0505L106.742 92.2307C106.951 93.7949 107.912 94.643 109.473 94.643C110.613 94.643 110.622 94.635 123.697 81.5802C130.893 74.3956 137.188 67.902 137.686 67.1497C138.185 66.3974 138.887 65.0432 139.247 64.1404L139.901 62.4991L139.981 42.2552C140.025 31.1211 139.991 21.7315 139.906 21.3896C139.82 21.0476 138.878 19.8491 137.812 18.7262L135.872 16.6848L137.23 15.1988C139.332 12.8989 139.894 11.5314 139.88 8.74348C139.872 6.92208 139.739 6.14953 139.268 5.17865C138.329 3.24537 137.217 2.08189 135.339 1.06943C133.753 0.214263 133.414 0.136844 131.283 0.142315C129.278 0.147513 128.755 0.253656 127.485 0.912675C126.675 1.33287 125.408 2.2422 124.669 2.9335L123.325 4.19026L121.627 2.53957C118.715 -0.291286 121.228 -0.0155318 98.7334 0.0265972C87.8199 0.0471146 78.583 0.11277 78.2068 0.172681ZM133.583 6.53991C134.293 7.24927 134.429 7.59724 134.429 8.6915C134.429 9.7461 134.263 10.2046 133.564 11.0797C133.088 11.6756 129.085 15.7528 124.669 20.1402C117.672 27.0921 116.504 28.1428 115.587 28.3149C113.43 28.7195 111.427 26.897 111.687 24.7684C111.808 23.7825 112.536 22.976 120.662 14.8292C125.525 9.95291 129.751 5.85162 130.052 5.71539C131.065 5.25662 132.676 5.63277 133.583 6.53991ZM106.362 23.3612C105.713 25.9406 106.725 29.3178 108.742 31.3009C110.789 33.3127 114.104 34.2937 116.776 33.6773C117.449 33.5222 118.049 33.4445 118.109 33.5047C118.169 33.5649 117.495 34.3366 116.611 35.2194C114.743 37.0859 113.187 37.7414 110.627 37.7414C108.102 37.7414 106.506 37.0813 104.725 35.2996C102.943 33.5181 102.283 31.9221 102.283 29.3977C102.283 26.8376 102.938 25.2824 104.805 23.414C105.688 22.5301 106.472 21.8689 106.547 21.9444C106.623 22.0199 106.54 22.6573 106.362 23.3612ZM68.768 24.6502C67.9163 25.112 14.7486 78.2723 14.3062 79.1045C13.3394 80.9229 12.2696 79.7227 36.1425 103.607C48.3686 115.839 58.6485 125.918 58.9872 126.004C59.3256 126.091 59.9412 126.08 60.3551 125.98C60.8681 125.856 69.6678 117.249 88.0057 98.9358C102.8 84.1619 115.08 71.7415 115.296 71.3352C115.512 70.9287 115.689 70.1912 115.689 69.6957C115.689 68.8668 113.915 67.0211 93.4575 46.5658C72.4078 25.518 71.1759 24.3372 70.2708 24.3449C69.7453 24.3496 69.0689 24.4869 68.768 24.6502ZM84.3629 94.6424L59.6028 119.4L40.1101 99.9091L20.6171 80.4179L45.3758 55.6602L70.1346 30.9025L89.6289 50.3935L109.123 69.8845L84.3629 94.6424ZM62.0651 48.0138C60.0079 48.6583 58.2266 50.2307 57.1405 52.3605C56.2874 54.0333 56.1845 54.4653 56.1982 56.317C56.2165 58.8155 56.8291 60.3724 58.5136 62.1995C61.0511 64.9521 65.0551 65.7734 68.3981 64.2272C71.4856 62.7992 73.28 60.1754 73.4896 56.7829C73.8685 50.6548 68.0033 46.1527 62.0651 48.0138ZM66.4515 53.4761C68.2247 54.393 68.6153 56.8141 67.2425 58.3775C66.2168 59.5454 65.0133 59.837 63.6201 59.2548C61.3496 58.3064 60.899 55.6266 62.7282 53.9504C63.8297 52.941 65.103 52.7787 66.4515 53.4761ZM64.801 72.2164C45.8087 78.7994 46.8371 78.4143 46.3331 79.1335C45.6322 80.1342 45.8084 81.7126 46.723 82.6272C48.0674 83.9712 46.0483 84.5235 69.7193 76.3357C83.669 71.5106 83.8031 71.4449 83.8031 69.4471C83.8031 68.5268 83.6433 68.1821 82.9156 67.5321C82.3802 67.0536 81.7318 66.7442 81.2803 66.7514C80.8689 66.7582 73.4532 69.2173 64.801 72.2164ZM62.0651 85.7658C60.0079 86.4103 58.2266 87.9827 57.1405 90.1125C56.2874 91.7853 56.1845 92.2173 56.1982 94.069C56.2165 96.5675 56.8291 98.1244 58.5136 99.9515C61.858 103.579 67.5204 103.687 71.0183 100.19C72.566 98.6419 73.3462 96.8569 73.4896 94.5349C73.8685 88.4068 68.0033 83.9047 62.0651 85.7658ZM66.4515 91.2281C67.4359 91.7372 68.084 92.9261 68.084 94.223C68.084 94.9417 67.8501 95.4533 67.1946 96.1684C65.5462 97.9671 62.943 97.5701 61.8886 95.3592C60.5737 92.6022 63.6762 89.7929 66.4515 91.2281ZM99.2943 98.5216C98.7791 98.8709 98.244 99.5007 98.1047 99.9209C97.2251 102.578 100.586 104.589 102.577 102.597C103.651 101.523 103.67 100.17 102.625 99.0236C101.586 97.8844 100.479 97.7173 99.2943 98.5216Z"/>
</mask>
<path fill-rule="evenodd" clip-rule="evenodd" d="M78.2068 0.172681C76.8148 0.393995 74.1996 1.45543 72.8718 2.33795C72.1195 2.83803 55.9222 18.8564 36.8779 37.9343C-0.417794 75.2951 1.38325 73.3547 0.379446 77.2606C-0.459652 80.5256 0.118442 84.4543 1.86093 87.3295C2.51207 88.4035 10.1239 96.1848 27.2979 113.333C50.075 136.076 51.931 137.862 53.5838 138.629C58.0852 140.718 63.007 140.408 67.0367 137.781C67.8433 137.255 74.3309 130.978 81.5583 123.732C94.194 111.063 94.6222 110.599 94.6222 109.596C94.6222 108.257 94.2608 107.611 93.2083 107.066C91.4494 106.157 91.5864 106.043 77.3885 120.19C62.6079 134.919 63.201 134.447 59.466 134.447C55.8664 134.447 57.1927 135.617 30.5651 108.946C7.45145 85.7953 6.56721 84.8723 5.98337 83.29C5.51937 82.0322 5.40774 81.261 5.50596 79.9905C5.77599 76.5037 3.78262 78.6651 41.214 41.2657C69.0134 13.4901 75.8701 6.77627 76.9757 6.24939L78.3436 5.59748L97.4981 5.52198L116.653 5.44647L118.01 6.82469L119.368 8.20292L115.71 11.8676L112.053 15.5326L110.045 15.5531C107.471 15.5796 105.145 16.3431 102.784 17.9355C100.669 19.3625 99.1178 21.2495 97.8732 23.9091C97.1077 25.5445 96.9742 26.1636 96.867 28.5731C96.6725 32.9521 97.9121 36.2734 100.832 39.1924C103.753 42.1138 107.084 43.3569 111.428 43.147C115.164 42.9665 117.937 41.7669 120.467 39.237C122.913 36.7916 124.183 33.9361 124.376 30.4525L124.515 27.9508L128.169 24.3041L131.824 20.6578L133.202 22.0152L134.58 23.3727L134.505 42.5255L134.429 61.6784L133.799 63.0462C133.295 64.1407 130.513 67.075 119.876 77.7323L106.583 91.0505L106.742 92.2307C106.951 93.7949 107.912 94.643 109.473 94.643C110.613 94.643 110.622 94.635 123.697 81.5802C130.893 74.3956 137.188 67.902 137.686 67.1497C138.185 66.3974 138.887 65.0432 139.247 64.1404L139.901 62.4991L139.981 42.2552C140.025 31.1211 139.991 21.7315 139.906 21.3896C139.82 21.0476 138.878 19.8491 137.812 18.7262L135.872 16.6848L137.23 15.1988C139.332 12.8989 139.894 11.5314 139.88 8.74348C139.872 6.92208 139.739 6.14953 139.268 5.17865C138.329 3.24537 137.217 2.08189 135.339 1.06943C133.753 0.214263 133.414 0.136844 131.283 0.142315C129.278 0.147513 128.755 0.253656 127.485 0.912675C126.675 1.33287 125.408 2.2422 124.669 2.9335L123.325 4.19026L121.627 2.53957C118.715 -0.291286 121.228 -0.0155318 98.7334 0.0265972C87.8199 0.0471146 78.583 0.11277 78.2068 0.172681ZM133.583 6.53991C134.293 7.24927 134.429 7.59724 134.429 8.6915C134.429 9.7461 134.263 10.2046 133.564 11.0797C133.088 11.6756 129.085 15.7528 124.669 20.1402C117.672 27.0921 116.504 28.1428 115.587 28.3149C113.43 28.7195 111.427 26.897 111.687 24.7684C111.808 23.7825 112.536 22.976 120.662 14.8292C125.525 9.95291 129.751 5.85162 130.052 5.71539C131.065 5.25662 132.676 5.63277 133.583 6.53991ZM106.362 23.3612C105.713 25.9406 106.725 29.3178 108.742 31.3009C110.789 33.3127 114.104 34.2937 116.776 33.6773C117.449 33.5222 118.049 33.4445 118.109 33.5047C118.169 33.5649 117.495 34.3366 116.611 35.2194C114.743 37.0859 113.187 37.7414 110.627 37.7414C108.102 37.7414 106.506 37.0813 104.725 35.2996C102.943 33.5181 102.283 31.9221 102.283 29.3977C102.283 26.8376 102.938 25.2824 104.805 23.414C105.688 22.5301 106.472 21.8689 106.547 21.9444C106.623 22.0199 106.54 22.6573 106.362 23.3612ZM68.768 24.6502C67.9163 25.112 14.7486 78.2723 14.3062 79.1045C13.3394 80.9229 12.2696 79.7227 36.1425 103.607C48.3686 115.839 58.6485 125.918 58.9872 126.004C59.3256 126.091 59.9412 126.08 60.3551 125.98C60.8681 125.856 69.6678 117.249 88.0057 98.9358C102.8 84.1619 115.08 71.7415 115.296 71.3352C115.512 70.9287 115.689 70.1912 115.689 69.6957C115.689 68.8668 113.915 67.0211 93.4575 46.5658C72.4078 25.518 71.1759 24.3372 70.2708 24.3449C69.7453 24.3496 69.0689 24.4869 68.768 24.6502ZM84.3629 94.6424L59.6028 119.4L40.1101 99.9091L20.6171 80.4179L45.3758 55.6602L70.1346 30.9025L89.6289 50.3935L109.123 69.8845L84.3629 94.6424ZM62.0651 48.0138C60.0079 48.6583 58.2266 50.2307 57.1405 52.3605C56.2874 54.0333 56.1845 54.4653 56.1982 56.317C56.2165 58.8155 56.8291 60.3724 58.5136 62.1995C61.0511 64.9521 65.0551 65.7734 68.3981 64.2272C71.4856 62.7992 73.28 60.1754 73.4896 56.7829C73.8685 50.6548 68.0033 46.1527 62.0651 48.0138ZM66.4515 53.4761C68.2247 54.393 68.6153 56.8141 67.2425 58.3775C66.2168 59.5454 65.0133 59.837 63.6201 59.2548C61.3496 58.3064 60.899 55.6266 62.7282 53.9504C63.8297 52.941 65.103 52.7787 66.4515 53.4761ZM64.801 72.2164C45.8087 78.7994 46.8371 78.4143 46.3331 79.1335C45.6322 80.1342 45.8084 81.7126 46.723 82.6272C48.0674 83.9712 46.0483 84.5235 69.7193 76.3357C83.669 71.5106 83.8031 71.4449 83.8031 69.4471C83.8031 68.5268 83.6433 68.1821 82.9156 67.5321C82.3802 67.0536 81.7318 66.7442 81.2803 66.7514C80.8689 66.7582 73.4532 69.2173 64.801 72.2164ZM62.0651 85.7658C60.0079 86.4103 58.2266 87.9827 57.1405 90.1125C56.2874 91.7853 56.1845 92.2173 56.1982 94.069C56.2165 96.5675 56.8291 98.1244 58.5136 99.9515C61.858 103.579 67.5204 103.687 71.0183 100.19C72.566 98.6419 73.3462 96.8569 73.4896 94.5349C73.8685 88.4068 68.0033 83.9047 62.0651 85.7658ZM66.4515 91.2281C67.4359 91.7372 68.084 92.9261 68.084 94.223C68.084 94.9417 67.8501 95.4533 67.1946 96.1684C65.5462 97.9671 62.943 97.5701 61.8886 95.3592C60.5737 92.6022 63.6762 89.7929 66.4515 91.2281ZM99.2943 98.5216C98.7791 98.8709 98.244 99.5007 98.1047 99.9209C97.2251 102.578 100.586 104.589 102.577 102.597C103.651 101.523 103.67 100.17 102.625 99.0236C101.586 97.8844 100.479 97.7173 99.2943 98.5216Z" stroke="#32383C" stroke-width="2" mask="url(#path-1-inside-1_1_3081)"/>
<path fill-rule="evenodd" clip-rule="evenodd" d="M62.0646 48.0138C60.0075 48.6583 58.2262 50.2307 57.14 52.3604C56.287 54.0333 56.1841 54.4653 56.1978 56.317C56.2161 58.8155 56.8287 60.3724 58.5132 62.1995C61.0507 64.9521 65.0547 65.7734 68.3977 64.2272C71.4851 62.7991 73.2796 60.1754 73.4892 56.7829C73.8681 50.6548 68.0029 46.1527 62.0646 48.0138ZM66.4511 53.476C68.2242 54.393 68.6149 56.8141 67.242 58.3775C66.2164 59.5454 65.0128 59.837 63.6197 59.2548C61.3492 58.3064 60.8986 55.6265 62.7278 53.9504C63.8293 52.941 65.1026 52.7787 66.4511 53.476ZM64.8005 72.2164C45.8083 78.7994 46.8367 78.4143 46.3327 79.1335C45.6318 80.1342 45.808 81.7126 46.7226 82.6272C48.067 83.9712 46.0479 84.5235 69.7189 76.3357C83.6686 71.5106 83.8027 71.4449 83.8027 69.4471C83.8027 68.5268 83.6429 68.1821 82.9151 67.5321C82.3797 67.0536 81.7313 66.7442 81.2799 66.7514C80.8684 66.7582 73.4528 69.2173 64.8005 72.2164ZM62.0646 85.7658C60.0075 86.4103 58.2262 87.9827 57.14 90.1124C56.287 91.7853 56.1841 92.2173 56.1978 94.069C56.2161 96.5675 56.8287 98.1243 58.5132 99.9515C61.8575 103.579 67.52 103.687 71.0179 100.189C72.5656 98.6419 73.3458 96.8569 73.4892 94.5349C73.8681 88.4068 68.0029 83.9047 62.0646 85.7658ZM66.4511 91.2281C67.4355 91.7372 68.0836 92.9261 68.0836 94.223C68.0836 94.9417 67.8497 95.4533 67.1942 96.1684C65.5458 97.967 62.9426 97.5701 61.8882 95.3592C60.5733 92.6022 63.6758 89.7929 66.4511 91.2281Z" fill="#32383C"/>
</svg>
