<svg width="125" height="140" viewBox="0 0 125 140" fill="none" xmlns="http://www.w3.org/2000/svg">
<mask id="path-1-inside-1_1_3082" fill="white">
<path fill-rule="evenodd" clip-rule="evenodd" d="M57.6948 0.407821C53.0474 1.218 48.5628 3.24059 44.8372 6.20597C34.3688 14.5388 31.225 28.7926 37.2395 40.6542C38.7753 43.683 40.4048 45.8262 43.1207 48.3899C47.8573 52.861 53.457 55.4097 59.8634 56.0102C67.9968 56.7725 75.8617 54.1035 81.7338 48.5884C84.5764 45.9186 86.3161 43.5936 87.9321 40.305C92.7827 30.4327 91.5224 19.1957 84.5885 10.4926C78.3262 2.63302 67.7272 -1.3416 57.6948 0.407821ZM68.5478 6.25327C78.4093 9.02971 85.1157 17.6568 85.2416 27.7271C85.3034 32.6795 84.1801 36.4695 81.4327 40.5784C77.1672 46.9579 70.2954 50.6028 62.525 50.6066C52.0154 50.6118 43.1263 43.7628 40.4048 33.5635C39.5729 30.445 39.5746 25.6572 40.4089 22.5318C42.7594 13.7281 50.2092 7.07658 59.3509 5.61918C61.2139 5.32196 66.5467 5.68973 68.5478 6.25327ZM7.10602 6.94178C5.45825 7.66227 5.05914 9.75185 6.30781 11.1187C7.15984 12.0511 19.3354 18.2936 20.3023 18.2936C20.809 18.2936 21.4521 17.9953 22.0099 17.5012C23.1816 16.4644 23.276 14.8188 22.2214 13.814C21.4485 13.0779 9.76592 6.92483 8.70328 6.69459C8.32377 6.61229 7.60505 6.72358 7.10602 6.94178ZM115.632 6.9251C113.658 7.77684 103.463 13.2176 102.906 13.7169C101.139 15.3009 102.451 18.2936 104.913 18.2936C105.737 18.2936 117.546 12.2059 118.624 11.2254C119.201 10.6998 119.383 10.282 119.383 9.47459C119.383 8.06313 118.979 7.38966 117.851 6.92291C116.731 6.45944 116.712 6.45944 115.632 6.9251ZM71.6882 17.63C71.3473 17.8665 68.394 21.2196 65.1255 25.0811C61.857 28.9425 59.0936 32.1337 58.9849 32.1723C58.8759 32.2111 57.532 31.1958 55.9985 29.9167C52.9651 27.3858 52.0607 27.0077 50.703 27.7033C49.056 28.5471 48.7392 30.5617 50.0356 31.9483C51.1694 33.1613 57.3023 38.2367 58.198 38.7032C59.0158 39.1292 60.13 39.0229 60.8863 38.4465C61.1234 38.2655 64.5702 34.2651 68.5455 29.5569C75.3663 21.4783 75.7734 20.9344 75.7734 19.8973C75.7734 17.7771 73.3859 16.4521 71.6882 17.63ZM6.47203 26.1641C5.05197 27.4211 5.35254 29.5932 7.06821 30.4721C7.76982 30.8316 8.96411 30.8858 14.6745 30.8166L21.4483 30.7348L22.1121 29.97C22.4772 29.5492 22.8496 28.9138 22.9398 28.5575C23.1612 27.6844 22.3649 26.0993 21.5115 25.7143C21.0558 25.5084 18.5328 25.4029 14.0769 25.4029H7.33207L6.47203 26.1641ZM103.328 25.8212C102.482 26.276 101.887 27.7561 102.143 28.7672C102.239 29.1443 102.627 29.7412 103.005 30.0936C103.682 30.7244 103.802 30.7362 110.343 30.8174C117.347 30.9041 118.192 30.7928 118.98 29.6794C119.201 29.3658 119.383 28.5938 119.383 27.9639C119.383 27.0208 119.233 26.6938 118.533 26.1108L117.684 25.4029L110.874 25.4138C105.465 25.4226 103.913 25.5062 103.328 25.8212ZM19.2777 38.0645C17.0953 38.8741 6.38757 44.7253 5.99067 45.3252C5.27857 46.4017 5.48254 47.828 6.47396 48.7057C7.88685 49.9561 8.45405 49.7945 15.4498 46.1474C18.9498 44.3228 21.9683 42.7085 22.1573 42.5603C22.3464 42.4121 22.6395 41.8332 22.8087 41.274C23.2133 39.9359 22.5818 38.6463 21.2523 38.0959C20.7359 37.8824 20.2783 37.7142 20.2355 37.7227C20.1927 37.7312 19.7616 37.8851 19.2777 38.0645ZM103.722 38.1208C102.057 38.8252 101.566 40.9366 102.75 42.3002C103.534 43.2031 115.837 49.465 116.827 49.465C117.347 49.465 118.019 49.1861 118.533 48.7571C119.24 48.1687 119.383 47.8507 119.383 46.8734C119.383 46.1559 119.195 45.4723 118.9 45.1199C118.389 44.5096 106.475 38.1897 105.303 37.9075C104.925 37.8165 104.214 37.9124 103.722 38.1208ZM11.0016 64.8921C10.4965 65.3206 8.38063 69.1535 5.00173 75.7611C-0.175637 85.8855 -0.215383 85.9765 0.116379 86.9713C0.613747 88.4623 1.39761 88.8394 4.00148 88.8394H6.21921V113.325C6.21921 139.918 6.1629 138.937 7.72953 139.645C8.77919 140.118 116.271 140.118 117.32 139.645C118.887 138.937 118.831 139.918 118.831 113.325V88.8394H121.139C123.242 88.8394 123.51 88.7778 124.148 88.1457C125.634 86.673 125.691 86.8428 120.037 75.7611C116.657 69.1366 114.555 65.3217 114.048 64.8921L113.268 64.2304H62.525H11.7816L11.0016 64.8921ZM57.8218 69.9041C57.8157 70.0171 56.2941 73.0623 54.4407 76.6716L51.0706 83.234L29.1757 83.304L7.28074 83.374L10.8054 76.5365L14.3303 69.699H36.0814C48.0447 69.699 57.8279 69.7915 57.8218 69.9041ZM114.245 76.5365L117.769 83.374L95.8743 83.304L73.9793 83.234L70.6093 76.6716C68.7559 73.0623 67.2342 70.0171 67.2282 69.9041C67.2221 69.7915 77.0052 69.699 88.9685 69.699H110.72L114.245 76.5365ZM60.6619 96.6885C61.2368 97.2578 61.6889 97.4402 62.525 97.4402C63.361 97.4402 63.8131 97.2578 64.388 96.6885L65.1471 95.9369L65.2851 87.2964L65.4231 78.6556L67.8569 83.3346C69.1953 85.9082 70.5582 88.1995 70.8853 88.4267C71.4031 88.7858 74.1927 88.8394 92.3954 88.8394H113.311V111.671V134.503H89.3094H65.3082L65.2276 126.276L65.1471 118.049L64.3726 117.389C63.8413 116.937 63.2614 116.73 62.525 116.73C61.7886 116.73 61.2087 116.937 60.6774 117.389L59.9029 118.049L59.8223 126.276L59.7417 134.503H35.7405H11.7394V111.671V88.8394H32.6545C50.8573 88.8394 53.6469 88.7858 54.1647 88.4267C54.4917 88.1995 55.8547 85.9082 57.193 83.3346L59.6269 78.6556L59.7649 87.2964L59.9029 95.9369L60.6619 96.6885ZM60.7293 105.041C60.2485 105.45 59.9559 106.032 59.8549 106.779C59.7235 107.748 59.8135 108.025 60.5112 108.799C61.191 109.552 61.5115 109.695 62.525 109.695C63.5385 109.695 63.8589 109.552 64.5387 108.799C65.2365 108.025 65.3265 107.748 65.1951 106.779C64.9961 105.309 63.9939 104.425 62.525 104.425C61.8096 104.425 61.2106 104.63 60.7293 105.041ZM21.8896 119.89C20.9194 120.412 20.5717 121.081 20.5717 122.429C20.5717 123.308 20.7348 123.653 21.4209 124.225L22.2699 124.933H31.1025H39.9348L40.7415 124.133C42.081 122.806 41.8014 120.711 40.1738 119.877C38.9963 119.274 23.0149 119.285 21.8896 119.89Z"/>
</mask>
<path fill-rule="evenodd" clip-rule="evenodd" d="M57.6948 0.407821C53.0474 1.218 48.5628 3.24059 44.8372 6.20597C34.3688 14.5388 31.225 28.7926 37.2395 40.6542C38.7753 43.683 40.4048 45.8262 43.1207 48.3899C47.8573 52.861 53.457 55.4097 59.8634 56.0102C67.9968 56.7725 75.8617 54.1035 81.7338 48.5884C84.5764 45.9186 86.3161 43.5936 87.9321 40.305C92.7827 30.4327 91.5224 19.1957 84.5885 10.4926C78.3262 2.63302 67.7272 -1.3416 57.6948 0.407821ZM68.5478 6.25327C78.4093 9.02971 85.1157 17.6568 85.2416 27.7271C85.3034 32.6795 84.1801 36.4695 81.4327 40.5784C77.1672 46.9579 70.2954 50.6028 62.525 50.6066C52.0154 50.6118 43.1263 43.7628 40.4048 33.5635C39.5729 30.445 39.5746 25.6572 40.4089 22.5318C42.7594 13.7281 50.2092 7.07658 59.3509 5.61918C61.2139 5.32196 66.5467 5.68973 68.5478 6.25327ZM7.10602 6.94178C5.45825 7.66227 5.05914 9.75185 6.30781 11.1187C7.15984 12.0511 19.3354 18.2936 20.3023 18.2936C20.809 18.2936 21.4521 17.9953 22.0099 17.5012C23.1816 16.4644 23.276 14.8188 22.2214 13.814C21.4485 13.0779 9.76592 6.92483 8.70328 6.69459C8.32377 6.61229 7.60505 6.72358 7.10602 6.94178ZM115.632 6.9251C113.658 7.77684 103.463 13.2176 102.906 13.7169C101.139 15.3009 102.451 18.2936 104.913 18.2936C105.737 18.2936 117.546 12.2059 118.624 11.2254C119.201 10.6998 119.383 10.282 119.383 9.47459C119.383 8.06313 118.979 7.38966 117.851 6.92291C116.731 6.45944 116.712 6.45944 115.632 6.9251ZM71.6882 17.63C71.3473 17.8665 68.394 21.2196 65.1255 25.0811C61.857 28.9425 59.0936 32.1337 58.9849 32.1723C58.8759 32.2111 57.532 31.1958 55.9985 29.9167C52.9651 27.3858 52.0607 27.0077 50.703 27.7033C49.056 28.5471 48.7392 30.5617 50.0356 31.9483C51.1694 33.1613 57.3023 38.2367 58.198 38.7032C59.0158 39.1292 60.13 39.0229 60.8863 38.4465C61.1234 38.2655 64.5702 34.2651 68.5455 29.5569C75.3663 21.4783 75.7734 20.9344 75.7734 19.8973C75.7734 17.7771 73.3859 16.4521 71.6882 17.63ZM6.47203 26.1641C5.05197 27.4211 5.35254 29.5932 7.06821 30.4721C7.76982 30.8316 8.96411 30.8858 14.6745 30.8166L21.4483 30.7348L22.1121 29.97C22.4772 29.5492 22.8496 28.9138 22.9398 28.5575C23.1612 27.6844 22.3649 26.0993 21.5115 25.7143C21.0558 25.5084 18.5328 25.4029 14.0769 25.4029H7.33207L6.47203 26.1641ZM103.328 25.8212C102.482 26.276 101.887 27.7561 102.143 28.7672C102.239 29.1443 102.627 29.7412 103.005 30.0936C103.682 30.7244 103.802 30.7362 110.343 30.8174C117.347 30.9041 118.192 30.7928 118.98 29.6794C119.201 29.3658 119.383 28.5938 119.383 27.9639C119.383 27.0208 119.233 26.6938 118.533 26.1108L117.684 25.4029L110.874 25.4138C105.465 25.4226 103.913 25.5062 103.328 25.8212ZM19.2777 38.0645C17.0953 38.8741 6.38757 44.7253 5.99067 45.3252C5.27857 46.4017 5.48254 47.828 6.47396 48.7057C7.88685 49.9561 8.45405 49.7945 15.4498 46.1474C18.9498 44.3228 21.9683 42.7085 22.1573 42.5603C22.3464 42.4121 22.6395 41.8332 22.8087 41.274C23.2133 39.9359 22.5818 38.6463 21.2523 38.0959C20.7359 37.8824 20.2783 37.7142 20.2355 37.7227C20.1927 37.7312 19.7616 37.8851 19.2777 38.0645ZM103.722 38.1208C102.057 38.8252 101.566 40.9366 102.75 42.3002C103.534 43.2031 115.837 49.465 116.827 49.465C117.347 49.465 118.019 49.1861 118.533 48.7571C119.24 48.1687 119.383 47.8507 119.383 46.8734C119.383 46.1559 119.195 45.4723 118.9 45.1199C118.389 44.5096 106.475 38.1897 105.303 37.9075C104.925 37.8165 104.214 37.9124 103.722 38.1208ZM11.0016 64.8921C10.4965 65.3206 8.38063 69.1535 5.00173 75.7611C-0.175637 85.8855 -0.215383 85.9765 0.116379 86.9713C0.613747 88.4623 1.39761 88.8394 4.00148 88.8394H6.21921V113.325C6.21921 139.918 6.1629 138.937 7.72953 139.645C8.77919 140.118 116.271 140.118 117.32 139.645C118.887 138.937 118.831 139.918 118.831 113.325V88.8394H121.139C123.242 88.8394 123.51 88.7778 124.148 88.1457C125.634 86.673 125.691 86.8428 120.037 75.7611C116.657 69.1366 114.555 65.3217 114.048 64.8921L113.268 64.2304H62.525H11.7816L11.0016 64.8921ZM57.8218 69.9041C57.8157 70.0171 56.2941 73.0623 54.4407 76.6716L51.0706 83.234L29.1757 83.304L7.28074 83.374L10.8054 76.5365L14.3303 69.699H36.0814C48.0447 69.699 57.8279 69.7915 57.8218 69.9041ZM114.245 76.5365L117.769 83.374L95.8743 83.304L73.9793 83.234L70.6093 76.6716C68.7559 73.0623 67.2342 70.0171 67.2282 69.9041C67.2221 69.7915 77.0052 69.699 88.9685 69.699H110.72L114.245 76.5365ZM60.6619 96.6885C61.2368 97.2578 61.6889 97.4402 62.525 97.4402C63.361 97.4402 63.8131 97.2578 64.388 96.6885L65.1471 95.9369L65.2851 87.2964L65.4231 78.6556L67.8569 83.3346C69.1953 85.9082 70.5582 88.1995 70.8853 88.4267C71.4031 88.7858 74.1927 88.8394 92.3954 88.8394H113.311V111.671V134.503H89.3094H65.3082L65.2276 126.276L65.1471 118.049L64.3726 117.389C63.8413 116.937 63.2614 116.73 62.525 116.73C61.7886 116.73 61.2087 116.937 60.6774 117.389L59.9029 118.049L59.8223 126.276L59.7417 134.503H35.7405H11.7394V111.671V88.8394H32.6545C50.8573 88.8394 53.6469 88.7858 54.1647 88.4267C54.4917 88.1995 55.8547 85.9082 57.193 83.3346L59.6269 78.6556L59.7649 87.2964L59.9029 95.9369L60.6619 96.6885ZM60.7293 105.041C60.2485 105.45 59.9559 106.032 59.8549 106.779C59.7235 107.748 59.8135 108.025 60.5112 108.799C61.191 109.552 61.5115 109.695 62.525 109.695C63.5385 109.695 63.8589 109.552 64.5387 108.799C65.2365 108.025 65.3265 107.748 65.1951 106.779C64.9961 105.309 63.9939 104.425 62.525 104.425C61.8096 104.425 61.2106 104.63 60.7293 105.041ZM21.8896 119.89C20.9194 120.412 20.5717 121.081 20.5717 122.429C20.5717 123.308 20.7348 123.653 21.4209 124.225L22.2699 124.933H31.1025H39.9348L40.7415 124.133C42.081 122.806 41.8014 120.711 40.1738 119.877C38.9963 119.274 23.0149 119.285 21.8896 119.89Z" stroke="#32383C" stroke-width="2" mask="url(#path-1-inside-1_1_3082)"/>
<path fill-rule="evenodd" clip-rule="evenodd" d="M71.6877 17.63C71.3469 17.8665 68.3936 21.2196 65.1251 25.0811C61.8566 28.9425 59.0932 32.1337 58.9844 32.1723C58.8754 32.2111 57.5315 31.1959 55.998 29.9167C52.9647 27.3858 52.0602 27.0077 50.7025 27.7033C49.0556 28.5471 48.7387 30.5618 50.0351 31.9483C51.169 33.1613 57.3019 38.2368 58.1975 38.7032C59.0153 39.1292 60.1296 39.0229 60.8859 38.4465C61.123 38.2655 64.5697 34.2651 68.5451 29.5569C75.3658 21.4783 75.7729 20.9345 75.7729 19.8973C75.7729 17.7771 73.3855 16.4521 71.6877 17.63Z" fill="#32383C"/>
</svg>
