<svg width="164" height="154" viewBox="0 0 164 154" fill="none" xmlns="http://www.w3.org/2000/svg">
<mask id="path-1-inside-1_1_3080" fill="white">
<path fill-rule="evenodd" clip-rule="evenodd" d="M80.2722 0.583991C79.9806 0.905411 79.7418 1.61886 79.7418 2.16936V3.17069L77.6644 2.97707C75.1024 2.73872 73.284 3.34897 71.6229 5.00527C69.0269 7.59293 68.8449 10.8042 71.0662 14.8156C72.8443 18.0273 73.0308 19.5893 71.9085 21.876C71.4316 22.8479 70.9438 23.6428 70.8246 23.6425C70.7053 23.6422 70.5871 22.9454 70.5611 22.0936C70.5355 21.2421 70.2961 20.128 70.0291 19.6177C69.0346 17.7186 66.9386 16.2943 65.1388 16.2943C64.4478 16.2943 64.3584 16.154 64.3584 15.0718C64.3584 13.5517 63.3216 12.4602 61.8772 12.4602C60.6266 12.4602 59.5511 13.7172 59.5511 15.1782C59.5511 16.1304 59.4533 16.2281 58.3239 16.4083C56.9205 16.632 55.244 17.6729 54.3515 18.8749C53.3063 20.282 53.1185 21.9242 53.7009 24.5662L54.2252 26.9449L53.1224 27.7692C51.3171 29.1188 49.9595 30.7214 49.04 32.588C48.2788 34.1324 48.1737 34.7238 48.1737 37.4524C48.1737 41.9887 48.1455 41.9686 54.8319 42.174C60.7599 42.3561 61.5448 42.6069 62.9864 44.7783C64.036 46.3595 64.1334 48.4938 63.2716 51.0405C62.8168 52.3853 62.5345 52.7575 61.8486 52.9157C60.6414 53.1937 58.354 54.5429 57.9755 55.1998C57.7047 55.6701 56.2503 54.3531 48.2663 46.4074C39.9112 38.0927 38.7635 37.062 37.8591 37.062C37.1431 37.062 36.6467 37.3105 36.1788 37.9038C34.8 39.6509 34.8654 39.7413 44.408 49.2874L53.3015 58.1843L47.693 55.4883C44.6083 54.0058 36.6041 50.0801 29.9059 46.7643L17.7273 40.7362L17.3135 38.979C16.4857 35.4644 16.8652 26.9219 17.9414 24.841C18.5378 23.6879 19.4823 24.3064 23.7204 28.6268C27.8313 32.817 29.1341 33.8669 30.2251 33.8669C31.1106 33.8669 32.3095 32.3857 32.3095 31.2914C32.3095 30.4281 31.6814 29.6453 27.9028 25.8014C22.6785 20.4865 21.2873 19.4893 19.0964 19.4893C15.8713 19.4893 13.85 21.2108 12.9687 24.7081C12.1912 27.7945 11.7845 32.3627 12.0159 35.414L12.2178 38.0796L10.3256 37.1278C7.27168 35.5919 5.9862 35.304 4.29114 35.7772C2.54191 36.2654 0.781785 37.884 0.248492 39.4953C-0.528372 41.8417 0.586288 47.8206 2.61754 52.2035C3.94982 55.0778 5.58431 57.5862 7.53256 59.7467L8.97315 61.3442H7.16816C3.37935 61.3442 0.901648 63.6938 0.901648 67.286C0.901648 69.0809 1.4875 70.4855 3.2707 72.9658C6.71339 77.7545 11.9146 81.632 16.8524 83.0905C18.2148 83.4931 18.2183 83.4979 17.6135 84.1611C16.5915 85.2826 16.2851 86.151 16.2864 87.9217C16.288 90.2327 17.0703 91.3893 19.838 93.1743C24.2236 96.0029 28.7005 97.3969 34.2866 97.6739L38.0267 97.8592L37.2806 99.0113C35.848 101.224 35.9714 103.77 37.605 105.705C38.9276 107.272 40.5967 107.733 45.6098 107.914L50.0966 108.077L50.1322 110.611L50.1678 113.145L43.4449 116.499L36.7223 119.853L35.4708 119.354C33.8899 118.723 32.2945 118.719 30.8003 119.341C30.1578 119.609 29.5319 119.717 29.4094 119.581C29.287 119.445 28.3858 118.129 27.4064 116.656L25.6261 113.978L26.3914 112.822C27.957 110.458 28.0922 106.84 26.7141 104.183C25.9863 102.78 23.2237 100.487 21.7199 100.038C20.9716 99.8142 19.3708 99.6768 18.1622 99.7324L15.9653 99.8337L15.122 98.5611C14.025 96.9052 13.4741 96.4895 12.378 96.4895C10.1862 96.4895 9.5558 98.8784 11.1252 101.237L12.0521 102.629L11.2288 104.211C8.94527 108.599 10.7096 113.981 15.1403 116.142C16.6928 116.899 17.2164 116.993 19.2961 116.888L21.6757 116.768L23.4672 119.387C24.4528 120.827 25.2588 122.097 25.2588 122.209C25.2588 122.32 24.9114 122.87 24.487 123.429C23.5099 124.717 22.9138 126.917 23.1875 128.227C23.5246 129.842 24.8389 131.841 26.0571 132.592C27.0157 133.182 27.1817 133.459 27.1817 134.469C27.1817 138.526 31.64 141.521 35.6503 140.159L37.1188 139.66L38.452 141.638C41.0621 145.51 41.5556 146.012 42.7523 146.012C43.4199 146.012 44.0974 145.763 44.4881 145.373C45.5816 144.283 45.2948 143.12 43.1542 139.967L41.1791 137.058L41.8569 136.339C42.635 135.514 43.5266 133.539 43.5266 132.643C43.5266 132.19 44.0042 131.858 45.3694 131.361C49.3781 129.9 56.4622 127.481 56.7327 127.481C56.8923 127.481 56.925 128.309 56.8067 129.352C56.2218 134.506 59.6648 138.519 65.7304 139.752L67.6639 140.145L68.0389 141.619C68.7023 144.224 70.463 145.964 74.0121 147.526C75.8098 148.316 77.8112 150.072 79.48 152.323C80.6139 153.852 80.8347 154 81.9853 154C83.1358 154 83.3566 153.852 84.4905 152.323C86.2211 149.989 87.9681 148.496 90.1856 147.456C93.7094 145.804 95.2692 144.22 95.9316 141.619L96.3066 140.145L98.2401 139.752C104.307 138.519 107.749 134.506 107.164 129.351L106.951 127.478L108.554 128.108C109.436 128.454 112.819 129.765 116.071 131.021C121.421 133.086 122.057 133.412 122.737 134.442C123.694 135.892 125.515 136.823 127.754 137.008C129.265 137.133 129.649 137.307 130.471 138.241C132.11 140.102 134.06 140.746 136.482 140.228C138.793 139.735 140.204 138.34 141.763 135.007C142.803 132.784 143.362 131.973 144.174 131.504C148.409 129.063 150.89 124.684 150.89 119.653C150.89 113.499 147.223 108.465 141.356 106.568C139.755 106.05 139.673 105.969 139.673 104.916C139.673 103.499 138.485 102.241 137.147 102.241C135.942 102.241 134.866 103.525 134.866 104.963C134.866 105.932 134.755 106.037 133.186 106.549C130.74 107.346 129.072 108.417 127.197 110.394C125.398 112.291 124.06 114.908 123.755 117.131C123.648 117.903 123.504 118.535 123.433 118.535C123.362 118.535 121.156 117.354 118.53 115.91L113.755 113.285L113.814 110.678L113.874 108.071L118.361 107.919C123.373 107.749 125.027 107.292 126.366 105.705C127.999 103.77 128.122 101.224 126.69 99.0113L125.944 97.8592L129.684 97.6726C133.597 97.4774 135.821 97.0167 139.437 95.6511C142.275 94.5798 146.239 91.981 147.044 90.6643C148.193 88.7863 147.776 85.2973 146.253 84.0369C145.807 83.6678 146.088 83.4819 148.408 82.6119C151.722 81.369 154.928 79.268 157.54 76.6279C162.29 71.8264 163.932 68.131 162.727 64.9593C161.899 62.7816 159.544 61.3442 156.805 61.3442H155.002L156.319 59.853C157.978 57.9744 158.223 57.0823 157.39 55.9647C156.95 55.3749 156.407 55.0842 155.618 55.0167C154.587 54.9286 154.276 55.1254 152.285 57.1191C151.077 58.3287 149.28 59.8531 148.291 60.5064L146.494 61.6947L131.145 62.3129C122.704 62.6529 115.004 62.9244 114.034 62.9164L112.271 62.9021L120.444 58.8399C124.939 56.6056 135.304 51.4968 143.477 47.487C160.607 39.0834 159.659 39.317 158.92 43.6821C158.128 48.3682 158.122 48.1343 159.051 49.0606C159.749 49.7568 160.093 49.8763 160.923 49.7108C161.481 49.5996 162.114 49.3318 162.329 49.1162C162.888 48.5535 163.692 45.269 163.922 42.6056C164.089 40.6679 164.015 40.1081 163.435 38.9122C162.665 37.3271 161.563 36.3939 159.763 35.8028C158.174 35.2807 156.764 35.5625 153.987 36.9565L151.753 38.0783L151.955 35.4133C152.186 32.3627 151.779 27.7941 151.002 24.7081C150.404 22.3364 149.133 20.6175 147.46 19.9209C146.058 19.3366 143.71 19.3768 142.461 20.0066C141.897 20.2909 133.543 28.4501 123.896 38.1384C108.846 53.2518 106.308 55.6743 106.016 55.1998C105.611 54.5397 103.316 53.1908 102.138 52.9195C101.429 52.7566 101.185 52.3764 100.578 50.4942C99.7448 47.9116 99.8644 46.5081 101.075 44.6591C102.41 42.6187 103.268 42.3545 109.139 42.174C115.825 41.9686 115.797 41.9887 115.797 37.4524C115.797 34.7238 115.692 34.1324 114.931 32.588C114.011 30.7214 112.653 29.1188 110.848 27.7692L109.745 26.9449L110.27 24.5662C110.852 21.9242 110.664 20.282 109.619 18.8749C108.727 17.6729 107.05 16.632 105.647 16.4083C104.517 16.2281 104.419 16.1304 104.419 15.1782C104.419 13.6913 103.345 12.4602 102.048 12.4602C100.632 12.4602 99.6121 13.5718 99.6121 15.1166C99.6121 16.1514 99.5176 16.2943 98.8317 16.2943C97.0319 16.2943 94.9359 17.7186 93.9414 19.6177C93.6744 20.128 93.435 21.2421 93.4094 22.0936C93.3834 22.9454 93.2652 23.6422 93.146 23.6425C93.0267 23.6428 92.5389 22.8479 92.0621 21.876C90.9397 19.5893 91.1262 18.0273 92.9043 14.8156C95.1045 10.8426 94.9795 7.92361 92.4938 5.23531C90.8295 3.43555 88.9783 2.73361 86.4884 2.95886L84.586 3.13075L84.3716 2.12431C84.2537 1.57062 83.9348 0.866112 83.6627 0.55875C82.9932 -0.197832 80.9683 -0.182816 80.2722 0.583991ZM81.9853 8.11467C83.6598 8.11467 85.7632 7.99678 86.6589 7.853C88.1989 7.60571 88.3264 7.63957 88.9825 8.47124C89.8613 9.58471 89.8516 10.3771 88.9405 11.981L88.2143 13.259H81.9853H75.7562L75.03 11.981C74.1189 10.3771 74.1092 9.58471 74.988 8.47124C75.6441 7.63957 75.7716 7.60571 77.3116 7.853C78.2073 7.99678 80.3107 8.11467 81.9853 8.11467ZM86.615 20.2363C86.8756 22.6623 87.9169 25.0304 89.4834 26.7589L90.634 28.0283L88.7934 29.2456C86.6253 30.6792 84.0716 33.2295 82.9467 35.0845C82.5061 35.8111 82.0734 36.4057 81.9853 36.4057C81.8971 36.4057 81.4645 35.8111 81.0238 35.0845C79.8989 33.2295 77.3452 30.6792 75.1771 29.2456L73.3366 28.0283L74.4871 26.7589C76.0537 25.0304 77.0949 22.6623 77.3555 20.2363L77.5731 18.2113H81.9853H86.3974L86.615 20.2363ZM65.6038 21.522C65.8743 21.8472 65.8576 22.4332 65.5381 23.8384L65.1103 25.7196L62.0191 25.811L58.928 25.9024L58.7277 25.0122C58.6175 24.5227 58.4149 23.677 58.2774 23.1332C57.8188 21.3172 58.2303 21.0868 61.9313 21.0868C64.3337 21.0868 65.3407 21.206 65.6038 21.522ZM105.646 21.6156C105.809 21.9063 105.83 22.5894 105.693 23.1332C105.556 23.677 105.353 24.5227 105.243 25.0122L105.042 25.9024L101.951 25.811L98.8603 25.7196L98.4324 23.8384C97.8318 21.1977 97.977 21.0868 102.039 21.0868C104.786 21.0868 105.4 21.1769 105.646 21.6156ZM146.026 24.841C147.095 26.9324 147.475 35.4708 146.654 38.979L146.243 40.7362L134.065 46.7643C120.626 53.416 110.597 58.2792 110.835 58.0284C110.92 57.9389 118.553 50.3095 127.797 41.074C137.369 31.51 144.848 24.2818 145.172 24.2818C145.484 24.2818 145.869 24.5333 146.026 24.841ZM66.9572 30.9981C72.3059 32.0093 77.1901 36.3616 78.814 41.5641C79.2919 43.0938 79.4213 44.4917 79.4213 48.1132V52.7176H73.6183C68.2222 52.7176 67.8306 52.6783 68.0331 52.1585C68.6488 50.5779 68.8789 48.0468 68.5667 46.2812C68.1094 43.6932 67.3694 42.2791 65.4817 40.3861C63.1283 38.0265 61.1993 37.3815 56.4942 37.3815C53.015 37.3815 52.8208 37.3473 52.8208 36.7322C52.8208 34.8136 54.695 32.2617 56.8269 31.2777C58.3095 30.5933 63.9882 30.4367 66.9572 30.9981ZM107.144 31.2777C109.275 32.2617 111.15 34.8136 111.15 36.7322C111.15 37.3473 110.955 37.3815 107.476 37.3815C104.599 37.3815 103.435 37.5185 102.108 38.0141C97.4383 39.757 94.5433 44.7374 95.3701 49.6056C95.5563 50.7022 95.8092 51.8508 95.932 52.1585C96.1396 52.6786 95.7502 52.7176 90.3522 52.7176H84.5492V48.1132C84.5492 42.9149 85.0222 40.7707 86.7679 38.0588C88.9575 34.6574 93.1085 31.733 96.7623 31.0176C97.5366 30.8658 99.9006 30.7294 102.016 30.7141C105.126 30.6914 106.107 30.7991 107.144 31.2777ZM28.6739 51.5108C41.2778 57.7006 51.4183 62.8219 51.2087 62.8915C50.8594 63.0078 44.5615 62.7893 24.7963 61.9752L17.4433 61.6723L15.6624 60.4991C13.1671 58.8549 10.2525 55.8046 8.51005 53.0135C6.06792 49.1015 4.06263 41.9436 5.06992 40.7337C5.2885 40.4717 5.53239 40.257 5.61251 40.257C5.69231 40.257 16.0701 45.3214 28.6739 51.5108ZM102.078 58.2811L102.977 59.0524V78.1187V97.185L102.274 97.7528C101.825 98.1151 100.724 98.3998 99.2295 98.5397C92.9174 99.1308 88.2486 101.207 83.8281 105.387L81.9853 107.13L80.1424 105.387C75.6745 101.162 71.1508 99.1516 64.7411 98.5429C63.2508 98.4014 62.1441 98.1142 61.6964 97.7528L60.9933 97.185V78.1187V59.0524L61.8925 58.2811L62.7918 57.5101H81.9853H101.179L102.078 58.2811ZM66.6999 63.0736L65.8006 63.8449V68.8525V73.8601L66.6999 74.6313C67.7988 75.5735 68.5039 75.6023 69.5926 74.7486C70.3855 74.1265 70.4307 73.9271 70.5172 70.6749L70.6079 67.255H81.9853H93.3626V78.0947V88.9342L91.0724 89.4956C88.372 90.1573 85.2523 91.6516 83.3403 93.1989L81.9715 94.307L80.8411 93.3178C79.2358 91.9126 75.5729 90.1509 72.8959 89.4962L70.6079 88.9368L70.4477 85.8168C70.3137 83.21 70.1852 82.6227 69.6654 82.2448C68.7962 81.6128 67.4514 81.6812 66.5573 82.4032C65.8243 82.995 65.8006 83.1605 65.8006 87.7032C65.8006 93.275 65.8695 93.3929 69.3484 93.7645C73.3625 94.1929 76.0075 95.4188 79.1781 98.3202C81.609 100.545 82.3865 100.563 84.6485 98.4503C87.6669 95.6307 90.8631 94.1248 94.6503 93.7379C95.9214 93.6082 97.0517 93.2951 97.4706 92.9567L98.1699 92.3925V78.1187V63.8449L97.2706 63.074L96.3713 62.3027H81.9853H67.5992L66.6999 63.0736ZM33.9889 67.1451C44.5192 67.5428 53.0282 67.9707 52.8977 68.0956C52.7673 68.2205 46.7145 70.9309 39.4468 74.1189L26.2334 79.9153L23.9031 79.6939C20.6937 79.3891 17.168 78.327 14.5859 76.8873C9.76732 74.201 4.53663 67.7946 5.94934 66.3102C6.0817 66.1712 8.13668 66.1396 10.5163 66.2396C12.8959 66.3399 23.4586 66.7473 33.9889 67.1451ZM158.197 67.1157C158.329 68.2509 156.187 71.3583 153.622 73.7505C149.974 77.1525 145.323 79.1945 140.093 79.6913L137.789 79.9102L124.549 74.1179C117.268 70.9321 111.173 68.1924 111.005 68.0298C110.818 67.8483 112.054 67.7246 114.21 67.709C116.14 67.6952 125.435 67.3521 134.866 66.9463C144.296 66.5409 153.382 66.2287 155.057 66.2527C158.073 66.2961 158.102 66.3041 158.197 67.1157ZM56.0257 75.2659V78.3248L50.0627 84.8522L44.0993 91.3797L41.8101 92.0976C38.4818 93.1408 32.2105 93.1222 28.788 92.0586C23.4961 90.4141 19.6281 87.7415 21.6533 87.1287C21.9616 87.0354 29.7136 83.6477 38.8795 79.6009C48.0455 75.5537 55.6533 72.2347 55.7853 72.2248C55.9174 72.2153 56.0257 73.5837 56.0257 75.2659ZM125.951 79.968C137.473 85.0165 142.876 87.5367 142.877 87.8629C142.877 88.7364 138.908 90.9007 135.183 92.0586C131.76 93.1222 125.489 93.1408 122.16 92.0976L119.871 91.3797L113.908 84.8522L107.945 78.3248V75.2317C107.945 72.4619 108.001 72.1606 108.485 72.3456C108.783 72.4594 116.642 75.8895 125.951 79.968ZM56.7663 98.9592L57.3172 99.9912L55.1216 101.094C52.0225 102.649 49.5797 103.206 46.0444 103.161C42.6834 103.119 41.2319 102.888 41.0585 102.368C40.9938 102.174 44.299 98.3183 48.4032 93.7986L55.8654 85.5816L56.0404 91.7544C56.1814 96.7387 56.3215 98.126 56.7663 98.9592ZM116.228 94.5057C120.161 98.8426 122.909 102.126 122.813 102.375C122.596 102.939 120.926 103.191 117.377 103.196C114.075 103.199 112.043 102.697 108.822 101.08L106.653 99.9912L107.207 98.9592C107.662 98.1116 107.783 96.8218 107.887 91.7388L108.014 85.5503L108.746 86.3073C109.149 86.7236 112.516 90.4129 116.228 94.5057ZM61.0939 105.636C61.1035 107.342 61.2987 108.145 62.0977 109.763C62.6435 110.867 63.5988 112.217 64.2209 112.761C65.4423 113.83 65.4413 113.838 63.9068 115.762C63.0171 116.877 62.8361 116.964 61.8031 116.772C57.2278 115.924 54.03 112.265 55.011 109.001C55.6392 106.911 56.7147 105.673 58.8675 104.562C59.9792 103.988 60.9324 103.519 60.9852 103.519C61.0381 103.519 61.0872 104.472 61.0939 105.636ZM68.8917 104.165C70.0118 104.521 71.3973 105.064 71.9706 105.372L73.0129 105.932L70.9669 107.954C68.6231 110.269 68.053 110.325 66.7723 108.365C66.0297 107.229 65.8121 106.224 65.9124 104.397C65.9708 103.34 66.23 103.32 68.8917 104.165ZM98.0581 104.397C98.1936 106.86 97.4014 108.887 96.0153 109.627C95.4403 109.934 95.1045 109.722 93.2741 107.898L91.1884 105.818L92.2755 105.253C93.5562 104.586 96.6476 103.56 97.4488 103.536C97.8401 103.524 98.0244 103.784 98.0581 104.397ZM106.267 105.212C107.631 106.127 108.807 107.852 109.076 109.329C109.661 112.543 106.653 115.841 102.299 116.759C101.389 116.951 101.18 116.826 99.9285 115.335L98.5558 113.701L99.7105 112.752C101.499 111.282 102.862 108.225 102.877 105.647L102.889 103.54L104.055 104.024C104.696 104.29 105.692 104.825 106.267 105.212ZM21.3671 105.286C23.3615 106.96 23.3615 109.663 21.3671 111.336C19.6275 112.795 16.5139 112.214 15.4893 110.239C14.5138 108.358 15.1502 105.897 16.8501 104.977C18.2676 104.21 20.2457 104.346 21.3671 105.286ZM78.9659 110.867C81.6757 113.461 82.2987 113.458 85.0402 110.833L87.0785 108.882L87.989 109.528C89.2411 110.417 95.3996 117.244 97.6418 120.229C99.973 123.333 101.756 126.795 102.252 129.181C102.601 130.86 102.577 131.153 102.007 132.208C101.655 132.859 100.807 133.694 100.093 134.093C98.8846 134.769 96.229 135.398 95.9124 135.082C95.8329 135.003 95.4785 133.81 95.1246 132.431C94.7711 131.053 94.2436 129.663 93.9526 129.342C93.2572 128.576 91.2285 128.562 90.5766 129.318C89.7334 130.297 89.6965 130.907 90.3465 133.134C91.1506 135.889 91.5018 140.209 90.998 141.147C90.7955 141.525 89.3696 142.483 87.8297 143.276C86.2897 144.07 84.345 145.346 83.5076 146.113L81.9853 147.508L80.4629 146.113C79.6255 145.346 77.6808 144.07 76.1408 143.276C74.6009 142.483 73.175 141.525 72.9725 141.147C72.3546 139.996 72.8523 135.559 73.975 132.211C75.1319 128.762 76.1222 126.957 77.9311 125.001C80.162 122.588 81.8776 122.132 84.2287 123.328C84.9196 123.679 85.8513 123.967 86.299 123.967C88.2188 123.967 89.1331 121.254 87.6739 119.889C85.5722 117.921 81.2738 117.29 78.5073 118.541C73.924 120.615 70.0487 126.645 68.3728 134.311C68.186 135.165 68.0873 135.218 66.9566 135.067C64.9538 134.799 62.8348 133.693 62.1044 132.535C60.0911 129.342 64.1042 121.993 72.8462 112.864C74.9076 110.711 76.6773 108.95 76.7786 108.95C76.8802 108.95 77.8644 109.813 78.9659 110.867ZM140.811 111.498C146.51 113.934 147.973 121.789 143.52 126.043L142.555 126.965L141.514 125.961C140.212 124.704 138.471 123.967 136.807 123.967C135.719 123.967 135.311 123.754 134.126 122.574C133.085 121.535 132.306 121.079 131.069 120.784C130.157 120.565 129.203 120.466 128.95 120.563C127.916 120.958 128.133 117.861 129.302 115.547C131.365 111.461 136.5 109.655 140.811 111.498ZM53.4842 117.763C54.1822 118.602 56.5029 120.079 58.1111 120.709L59.6238 121.301L52.9371 123.641C49.2599 124.927 45.2169 126.326 43.9535 126.751L41.6563 127.522L40.5743 126.814C39.6897 126.236 39.484 125.891 39.4452 124.919L39.3975 123.73L46.029 120.515C49.6765 118.747 52.7509 117.291 52.8618 117.279C52.9724 117.267 53.2525 117.485 53.4842 117.763ZM117.34 120.725C120.636 122.544 123.408 124.157 123.502 124.307C123.63 124.514 122.336 127.532 121.901 128.04C121.863 128.084 120.042 127.424 117.853 126.573C115.664 125.722 111.721 124.192 109.09 123.172L104.306 121.317L105.839 120.717C107.473 120.077 109.786 118.605 110.495 117.753C110.732 117.468 111.021 117.277 111.137 117.327C111.254 117.376 114.045 118.905 117.34 120.725ZM34.2164 124.107C34.427 124.36 34.5526 124.965 34.4959 125.45C34.4132 126.158 33.979 126.573 32.3095 127.54C29.9549 128.904 29.1284 129.029 28.3243 128.143C27.4471 127.177 27.9743 126.335 30.327 124.942C32.6194 123.584 33.6049 123.373 34.2164 124.107ZM130.492 125.65C131.354 126.278 131.249 127.265 130.059 129.717C128.842 132.225 127.959 132.792 126.841 131.783C126.007 131.031 126.032 130.833 127.31 128.035C128.581 125.257 129.257 124.75 130.492 125.65ZM138.007 129.143C138.646 129.78 138.447 130.901 137.287 133.198C136.611 134.535 135.934 135.45 135.545 135.552C134.736 135.762 133.584 134.974 133.584 134.211C133.584 133.49 135.103 130.078 135.762 129.318C136.322 128.673 137.447 128.585 138.007 129.143ZM38.3841 131.138C39.2058 132.125 38.6292 133.024 36.2503 134.466C34.4712 135.544 33.7511 135.817 33.1117 135.657C32.6553 135.543 32.2006 135.238 32.1009 134.979C31.6939 133.921 32.3156 133.047 34.2994 131.887C36.4483 130.63 37.7607 130.389 38.3841 131.138Z"/>
</mask>
<path fill-rule="evenodd" clip-rule="evenodd" d="M80.2722 0.583991C79.9806 0.905411 79.7418 1.61886 79.7418 2.16936V3.17069L77.6644 2.97707C75.1024 2.73872 73.284 3.34897 71.6229 5.00527C69.0269 7.59293 68.8449 10.8042 71.0662 14.8156C72.8443 18.0273 73.0308 19.5893 71.9085 21.876C71.4316 22.8479 70.9438 23.6428 70.8246 23.6425C70.7053 23.6422 70.5871 22.9454 70.5611 22.0936C70.5355 21.2421 70.2961 20.128 70.0291 19.6177C69.0346 17.7186 66.9386 16.2943 65.1388 16.2943C64.4478 16.2943 64.3584 16.154 64.3584 15.0718C64.3584 13.5517 63.3216 12.4602 61.8772 12.4602C60.6266 12.4602 59.5511 13.7172 59.5511 15.1782C59.5511 16.1304 59.4533 16.2281 58.3239 16.4083C56.9205 16.632 55.244 17.6729 54.3515 18.8749C53.3063 20.282 53.1185 21.9242 53.7009 24.5662L54.2252 26.9449L53.1224 27.7692C51.3171 29.1188 49.9595 30.7214 49.04 32.588C48.2788 34.1324 48.1737 34.7238 48.1737 37.4524C48.1737 41.9887 48.1455 41.9686 54.8319 42.174C60.7599 42.3561 61.5448 42.6069 62.9864 44.7783C64.036 46.3595 64.1334 48.4938 63.2716 51.0405C62.8168 52.3853 62.5345 52.7575 61.8486 52.9157C60.6414 53.1937 58.354 54.5429 57.9755 55.1998C57.7047 55.6701 56.2503 54.3531 48.2663 46.4074C39.9112 38.0927 38.7635 37.062 37.8591 37.062C37.1431 37.062 36.6467 37.3105 36.1788 37.9038C34.8 39.6509 34.8654 39.7413 44.408 49.2874L53.3015 58.1843L47.693 55.4883C44.6083 54.0058 36.6041 50.0801 29.9059 46.7643L17.7273 40.7362L17.3135 38.979C16.4857 35.4644 16.8652 26.9219 17.9414 24.841C18.5378 23.6879 19.4823 24.3064 23.7204 28.6268C27.8313 32.817 29.1341 33.8669 30.2251 33.8669C31.1106 33.8669 32.3095 32.3857 32.3095 31.2914C32.3095 30.4281 31.6814 29.6453 27.9028 25.8014C22.6785 20.4865 21.2873 19.4893 19.0964 19.4893C15.8713 19.4893 13.85 21.2108 12.9687 24.7081C12.1912 27.7945 11.7845 32.3627 12.0159 35.414L12.2178 38.0796L10.3256 37.1278C7.27168 35.5919 5.9862 35.304 4.29114 35.7772C2.54191 36.2654 0.781785 37.884 0.248492 39.4953C-0.528372 41.8417 0.586288 47.8206 2.61754 52.2035C3.94982 55.0778 5.58431 57.5862 7.53256 59.7467L8.97315 61.3442H7.16816C3.37935 61.3442 0.901648 63.6938 0.901648 67.286C0.901648 69.0809 1.4875 70.4855 3.2707 72.9658C6.71339 77.7545 11.9146 81.632 16.8524 83.0905C18.2148 83.4931 18.2183 83.4979 17.6135 84.1611C16.5915 85.2826 16.2851 86.151 16.2864 87.9217C16.288 90.2327 17.0703 91.3893 19.838 93.1743C24.2236 96.0029 28.7005 97.3969 34.2866 97.6739L38.0267 97.8592L37.2806 99.0113C35.848 101.224 35.9714 103.77 37.605 105.705C38.9276 107.272 40.5967 107.733 45.6098 107.914L50.0966 108.077L50.1322 110.611L50.1678 113.145L43.4449 116.499L36.7223 119.853L35.4708 119.354C33.8899 118.723 32.2945 118.719 30.8003 119.341C30.1578 119.609 29.5319 119.717 29.4094 119.581C29.287 119.445 28.3858 118.129 27.4064 116.656L25.6261 113.978L26.3914 112.822C27.957 110.458 28.0922 106.84 26.7141 104.183C25.9863 102.78 23.2237 100.487 21.7199 100.038C20.9716 99.8142 19.3708 99.6768 18.1622 99.7324L15.9653 99.8337L15.122 98.5611C14.025 96.9052 13.4741 96.4895 12.378 96.4895C10.1862 96.4895 9.5558 98.8784 11.1252 101.237L12.0521 102.629L11.2288 104.211C8.94527 108.599 10.7096 113.981 15.1403 116.142C16.6928 116.899 17.2164 116.993 19.2961 116.888L21.6757 116.768L23.4672 119.387C24.4528 120.827 25.2588 122.097 25.2588 122.209C25.2588 122.32 24.9114 122.87 24.487 123.429C23.5099 124.717 22.9138 126.917 23.1875 128.227C23.5246 129.842 24.8389 131.841 26.0571 132.592C27.0157 133.182 27.1817 133.459 27.1817 134.469C27.1817 138.526 31.64 141.521 35.6503 140.159L37.1188 139.66L38.452 141.638C41.0621 145.51 41.5556 146.012 42.7523 146.012C43.4199 146.012 44.0974 145.763 44.4881 145.373C45.5816 144.283 45.2948 143.12 43.1542 139.967L41.1791 137.058L41.8569 136.339C42.635 135.514 43.5266 133.539 43.5266 132.643C43.5266 132.19 44.0042 131.858 45.3694 131.361C49.3781 129.9 56.4622 127.481 56.7327 127.481C56.8923 127.481 56.925 128.309 56.8067 129.352C56.2218 134.506 59.6648 138.519 65.7304 139.752L67.6639 140.145L68.0389 141.619C68.7023 144.224 70.463 145.964 74.0121 147.526C75.8098 148.316 77.8112 150.072 79.48 152.323C80.6139 153.852 80.8347 154 81.9853 154C83.1358 154 83.3566 153.852 84.4905 152.323C86.2211 149.989 87.9681 148.496 90.1856 147.456C93.7094 145.804 95.2692 144.22 95.9316 141.619L96.3066 140.145L98.2401 139.752C104.307 138.519 107.749 134.506 107.164 129.351L106.951 127.478L108.554 128.108C109.436 128.454 112.819 129.765 116.071 131.021C121.421 133.086 122.057 133.412 122.737 134.442C123.694 135.892 125.515 136.823 127.754 137.008C129.265 137.133 129.649 137.307 130.471 138.241C132.11 140.102 134.06 140.746 136.482 140.228C138.793 139.735 140.204 138.34 141.763 135.007C142.803 132.784 143.362 131.973 144.174 131.504C148.409 129.063 150.89 124.684 150.89 119.653C150.89 113.499 147.223 108.465 141.356 106.568C139.755 106.05 139.673 105.969 139.673 104.916C139.673 103.499 138.485 102.241 137.147 102.241C135.942 102.241 134.866 103.525 134.866 104.963C134.866 105.932 134.755 106.037 133.186 106.549C130.74 107.346 129.072 108.417 127.197 110.394C125.398 112.291 124.06 114.908 123.755 117.131C123.648 117.903 123.504 118.535 123.433 118.535C123.362 118.535 121.156 117.354 118.53 115.91L113.755 113.285L113.814 110.678L113.874 108.071L118.361 107.919C123.373 107.749 125.027 107.292 126.366 105.705C127.999 103.77 128.122 101.224 126.69 99.0113L125.944 97.8592L129.684 97.6726C133.597 97.4774 135.821 97.0167 139.437 95.6511C142.275 94.5798 146.239 91.981 147.044 90.6643C148.193 88.7863 147.776 85.2973 146.253 84.0369C145.807 83.6678 146.088 83.4819 148.408 82.6119C151.722 81.369 154.928 79.268 157.54 76.6279C162.29 71.8264 163.932 68.131 162.727 64.9593C161.899 62.7816 159.544 61.3442 156.805 61.3442H155.002L156.319 59.853C157.978 57.9744 158.223 57.0823 157.39 55.9647C156.95 55.3749 156.407 55.0842 155.618 55.0167C154.587 54.9286 154.276 55.1254 152.285 57.1191C151.077 58.3287 149.28 59.8531 148.291 60.5064L146.494 61.6947L131.145 62.3129C122.704 62.6529 115.004 62.9244 114.034 62.9164L112.271 62.9021L120.444 58.8399C124.939 56.6056 135.304 51.4968 143.477 47.487C160.607 39.0834 159.659 39.317 158.92 43.6821C158.128 48.3682 158.122 48.1343 159.051 49.0606C159.749 49.7568 160.093 49.8763 160.923 49.7108C161.481 49.5996 162.114 49.3318 162.329 49.1162C162.888 48.5535 163.692 45.269 163.922 42.6056C164.089 40.6679 164.015 40.1081 163.435 38.9122C162.665 37.3271 161.563 36.3939 159.763 35.8028C158.174 35.2807 156.764 35.5625 153.987 36.9565L151.753 38.0783L151.955 35.4133C152.186 32.3627 151.779 27.7941 151.002 24.7081C150.404 22.3364 149.133 20.6175 147.46 19.9209C146.058 19.3366 143.71 19.3768 142.461 20.0066C141.897 20.2909 133.543 28.4501 123.896 38.1384C108.846 53.2518 106.308 55.6743 106.016 55.1998C105.611 54.5397 103.316 53.1908 102.138 52.9195C101.429 52.7566 101.185 52.3764 100.578 50.4942C99.7448 47.9116 99.8644 46.5081 101.075 44.6591C102.41 42.6187 103.268 42.3545 109.139 42.174C115.825 41.9686 115.797 41.9887 115.797 37.4524C115.797 34.7238 115.692 34.1324 114.931 32.588C114.011 30.7214 112.653 29.1188 110.848 27.7692L109.745 26.9449L110.27 24.5662C110.852 21.9242 110.664 20.282 109.619 18.8749C108.727 17.6729 107.05 16.632 105.647 16.4083C104.517 16.2281 104.419 16.1304 104.419 15.1782C104.419 13.6913 103.345 12.4602 102.048 12.4602C100.632 12.4602 99.6121 13.5718 99.6121 15.1166C99.6121 16.1514 99.5176 16.2943 98.8317 16.2943C97.0319 16.2943 94.9359 17.7186 93.9414 19.6177C93.6744 20.128 93.435 21.2421 93.4094 22.0936C93.3834 22.9454 93.2652 23.6422 93.146 23.6425C93.0267 23.6428 92.5389 22.8479 92.0621 21.876C90.9397 19.5893 91.1262 18.0273 92.9043 14.8156C95.1045 10.8426 94.9795 7.92361 92.4938 5.23531C90.8295 3.43555 88.9783 2.73361 86.4884 2.95886L84.586 3.13075L84.3716 2.12431C84.2537 1.57062 83.9348 0.866112 83.6627 0.55875C82.9932 -0.197832 80.9683 -0.182816 80.2722 0.583991ZM81.9853 8.11467C83.6598 8.11467 85.7632 7.99678 86.6589 7.853C88.1989 7.60571 88.3264 7.63957 88.9825 8.47124C89.8613 9.58471 89.8516 10.3771 88.9405 11.981L88.2143 13.259H81.9853H75.7562L75.03 11.981C74.1189 10.3771 74.1092 9.58471 74.988 8.47124C75.6441 7.63957 75.7716 7.60571 77.3116 7.853C78.2073 7.99678 80.3107 8.11467 81.9853 8.11467ZM86.615 20.2363C86.8756 22.6623 87.9169 25.0304 89.4834 26.7589L90.634 28.0283L88.7934 29.2456C86.6253 30.6792 84.0716 33.2295 82.9467 35.0845C82.5061 35.8111 82.0734 36.4057 81.9853 36.4057C81.8971 36.4057 81.4645 35.8111 81.0238 35.0845C79.8989 33.2295 77.3452 30.6792 75.1771 29.2456L73.3366 28.0283L74.4871 26.7589C76.0537 25.0304 77.0949 22.6623 77.3555 20.2363L77.5731 18.2113H81.9853H86.3974L86.615 20.2363ZM65.6038 21.522C65.8743 21.8472 65.8576 22.4332 65.5381 23.8384L65.1103 25.7196L62.0191 25.811L58.928 25.9024L58.7277 25.0122C58.6175 24.5227 58.4149 23.677 58.2774 23.1332C57.8188 21.3172 58.2303 21.0868 61.9313 21.0868C64.3337 21.0868 65.3407 21.206 65.6038 21.522ZM105.646 21.6156C105.809 21.9063 105.83 22.5894 105.693 23.1332C105.556 23.677 105.353 24.5227 105.243 25.0122L105.042 25.9024L101.951 25.811L98.8603 25.7196L98.4324 23.8384C97.8318 21.1977 97.977 21.0868 102.039 21.0868C104.786 21.0868 105.4 21.1769 105.646 21.6156ZM146.026 24.841C147.095 26.9324 147.475 35.4708 146.654 38.979L146.243 40.7362L134.065 46.7643C120.626 53.416 110.597 58.2792 110.835 58.0284C110.92 57.9389 118.553 50.3095 127.797 41.074C137.369 31.51 144.848 24.2818 145.172 24.2818C145.484 24.2818 145.869 24.5333 146.026 24.841ZM66.9572 30.9981C72.3059 32.0093 77.1901 36.3616 78.814 41.5641C79.2919 43.0938 79.4213 44.4917 79.4213 48.1132V52.7176H73.6183C68.2222 52.7176 67.8306 52.6783 68.0331 52.1585C68.6488 50.5779 68.8789 48.0468 68.5667 46.2812C68.1094 43.6932 67.3694 42.2791 65.4817 40.3861C63.1283 38.0265 61.1993 37.3815 56.4942 37.3815C53.015 37.3815 52.8208 37.3473 52.8208 36.7322C52.8208 34.8136 54.695 32.2617 56.8269 31.2777C58.3095 30.5933 63.9882 30.4367 66.9572 30.9981ZM107.144 31.2777C109.275 32.2617 111.15 34.8136 111.15 36.7322C111.15 37.3473 110.955 37.3815 107.476 37.3815C104.599 37.3815 103.435 37.5185 102.108 38.0141C97.4383 39.757 94.5433 44.7374 95.3701 49.6056C95.5563 50.7022 95.8092 51.8508 95.932 52.1585C96.1396 52.6786 95.7502 52.7176 90.3522 52.7176H84.5492V48.1132C84.5492 42.9149 85.0222 40.7707 86.7679 38.0588C88.9575 34.6574 93.1085 31.733 96.7623 31.0176C97.5366 30.8658 99.9006 30.7294 102.016 30.7141C105.126 30.6914 106.107 30.7991 107.144 31.2777ZM28.6739 51.5108C41.2778 57.7006 51.4183 62.8219 51.2087 62.8915C50.8594 63.0078 44.5615 62.7893 24.7963 61.9752L17.4433 61.6723L15.6624 60.4991C13.1671 58.8549 10.2525 55.8046 8.51005 53.0135C6.06792 49.1015 4.06263 41.9436 5.06992 40.7337C5.2885 40.4717 5.53239 40.257 5.61251 40.257C5.69231 40.257 16.0701 45.3214 28.6739 51.5108ZM102.078 58.2811L102.977 59.0524V78.1187V97.185L102.274 97.7528C101.825 98.1151 100.724 98.3998 99.2295 98.5397C92.9174 99.1308 88.2486 101.207 83.8281 105.387L81.9853 107.13L80.1424 105.387C75.6745 101.162 71.1508 99.1516 64.7411 98.5429C63.2508 98.4014 62.1441 98.1142 61.6964 97.7528L60.9933 97.185V78.1187V59.0524L61.8925 58.2811L62.7918 57.5101H81.9853H101.179L102.078 58.2811ZM66.6999 63.0736L65.8006 63.8449V68.8525V73.8601L66.6999 74.6313C67.7988 75.5735 68.5039 75.6023 69.5926 74.7486C70.3855 74.1265 70.4307 73.9271 70.5172 70.6749L70.6079 67.255H81.9853H93.3626V78.0947V88.9342L91.0724 89.4956C88.372 90.1573 85.2523 91.6516 83.3403 93.1989L81.9715 94.307L80.8411 93.3178C79.2358 91.9126 75.5729 90.1509 72.8959 89.4962L70.6079 88.9368L70.4477 85.8168C70.3137 83.21 70.1852 82.6227 69.6654 82.2448C68.7962 81.6128 67.4514 81.6812 66.5573 82.4032C65.8243 82.995 65.8006 83.1605 65.8006 87.7032C65.8006 93.275 65.8695 93.3929 69.3484 93.7645C73.3625 94.1929 76.0075 95.4188 79.1781 98.3202C81.609 100.545 82.3865 100.563 84.6485 98.4503C87.6669 95.6307 90.8631 94.1248 94.6503 93.7379C95.9214 93.6082 97.0517 93.2951 97.4706 92.9567L98.1699 92.3925V78.1187V63.8449L97.2706 63.074L96.3713 62.3027H81.9853H67.5992L66.6999 63.0736ZM33.9889 67.1451C44.5192 67.5428 53.0282 67.9707 52.8977 68.0956C52.7673 68.2205 46.7145 70.9309 39.4468 74.1189L26.2334 79.9153L23.9031 79.6939C20.6937 79.3891 17.168 78.327 14.5859 76.8873C9.76732 74.201 4.53663 67.7946 5.94934 66.3102C6.0817 66.1712 8.13668 66.1396 10.5163 66.2396C12.8959 66.3399 23.4586 66.7473 33.9889 67.1451ZM158.197 67.1157C158.329 68.2509 156.187 71.3583 153.622 73.7505C149.974 77.1525 145.323 79.1945 140.093 79.6913L137.789 79.9102L124.549 74.1179C117.268 70.9321 111.173 68.1924 111.005 68.0298C110.818 67.8483 112.054 67.7246 114.21 67.709C116.14 67.6952 125.435 67.3521 134.866 66.9463C144.296 66.5409 153.382 66.2287 155.057 66.2527C158.073 66.2961 158.102 66.3041 158.197 67.1157ZM56.0257 75.2659V78.3248L50.0627 84.8522L44.0993 91.3797L41.8101 92.0976C38.4818 93.1408 32.2105 93.1222 28.788 92.0586C23.4961 90.4141 19.6281 87.7415 21.6533 87.1287C21.9616 87.0354 29.7136 83.6477 38.8795 79.6009C48.0455 75.5537 55.6533 72.2347 55.7853 72.2248C55.9174 72.2153 56.0257 73.5837 56.0257 75.2659ZM125.951 79.968C137.473 85.0165 142.876 87.5367 142.877 87.8629C142.877 88.7364 138.908 90.9007 135.183 92.0586C131.76 93.1222 125.489 93.1408 122.16 92.0976L119.871 91.3797L113.908 84.8522L107.945 78.3248V75.2317C107.945 72.4619 108.001 72.1606 108.485 72.3456C108.783 72.4594 116.642 75.8895 125.951 79.968ZM56.7663 98.9592L57.3172 99.9912L55.1216 101.094C52.0225 102.649 49.5797 103.206 46.0444 103.161C42.6834 103.119 41.2319 102.888 41.0585 102.368C40.9938 102.174 44.299 98.3183 48.4032 93.7986L55.8654 85.5816L56.0404 91.7544C56.1814 96.7387 56.3215 98.126 56.7663 98.9592ZM116.228 94.5057C120.161 98.8426 122.909 102.126 122.813 102.375C122.596 102.939 120.926 103.191 117.377 103.196C114.075 103.199 112.043 102.697 108.822 101.08L106.653 99.9912L107.207 98.9592C107.662 98.1116 107.783 96.8218 107.887 91.7388L108.014 85.5503L108.746 86.3073C109.149 86.7236 112.516 90.4129 116.228 94.5057ZM61.0939 105.636C61.1035 107.342 61.2987 108.145 62.0977 109.763C62.6435 110.867 63.5988 112.217 64.2209 112.761C65.4423 113.83 65.4413 113.838 63.9068 115.762C63.0171 116.877 62.8361 116.964 61.8031 116.772C57.2278 115.924 54.03 112.265 55.011 109.001C55.6392 106.911 56.7147 105.673 58.8675 104.562C59.9792 103.988 60.9324 103.519 60.9852 103.519C61.0381 103.519 61.0872 104.472 61.0939 105.636ZM68.8917 104.165C70.0118 104.521 71.3973 105.064 71.9706 105.372L73.0129 105.932L70.9669 107.954C68.6231 110.269 68.053 110.325 66.7723 108.365C66.0297 107.229 65.8121 106.224 65.9124 104.397C65.9708 103.34 66.23 103.32 68.8917 104.165ZM98.0581 104.397C98.1936 106.86 97.4014 108.887 96.0153 109.627C95.4403 109.934 95.1045 109.722 93.2741 107.898L91.1884 105.818L92.2755 105.253C93.5562 104.586 96.6476 103.56 97.4488 103.536C97.8401 103.524 98.0244 103.784 98.0581 104.397ZM106.267 105.212C107.631 106.127 108.807 107.852 109.076 109.329C109.661 112.543 106.653 115.841 102.299 116.759C101.389 116.951 101.18 116.826 99.9285 115.335L98.5558 113.701L99.7105 112.752C101.499 111.282 102.862 108.225 102.877 105.647L102.889 103.54L104.055 104.024C104.696 104.29 105.692 104.825 106.267 105.212ZM21.3671 105.286C23.3615 106.96 23.3615 109.663 21.3671 111.336C19.6275 112.795 16.5139 112.214 15.4893 110.239C14.5138 108.358 15.1502 105.897 16.8501 104.977C18.2676 104.21 20.2457 104.346 21.3671 105.286ZM78.9659 110.867C81.6757 113.461 82.2987 113.458 85.0402 110.833L87.0785 108.882L87.989 109.528C89.2411 110.417 95.3996 117.244 97.6418 120.229C99.973 123.333 101.756 126.795 102.252 129.181C102.601 130.86 102.577 131.153 102.007 132.208C101.655 132.859 100.807 133.694 100.093 134.093C98.8846 134.769 96.229 135.398 95.9124 135.082C95.8329 135.003 95.4785 133.81 95.1246 132.431C94.7711 131.053 94.2436 129.663 93.9526 129.342C93.2572 128.576 91.2285 128.562 90.5766 129.318C89.7334 130.297 89.6965 130.907 90.3465 133.134C91.1506 135.889 91.5018 140.209 90.998 141.147C90.7955 141.525 89.3696 142.483 87.8297 143.276C86.2897 144.07 84.345 145.346 83.5076 146.113L81.9853 147.508L80.4629 146.113C79.6255 145.346 77.6808 144.07 76.1408 143.276C74.6009 142.483 73.175 141.525 72.9725 141.147C72.3546 139.996 72.8523 135.559 73.975 132.211C75.1319 128.762 76.1222 126.957 77.9311 125.001C80.162 122.588 81.8776 122.132 84.2287 123.328C84.9196 123.679 85.8513 123.967 86.299 123.967C88.2188 123.967 89.1331 121.254 87.6739 119.889C85.5722 117.921 81.2738 117.29 78.5073 118.541C73.924 120.615 70.0487 126.645 68.3728 134.311C68.186 135.165 68.0873 135.218 66.9566 135.067C64.9538 134.799 62.8348 133.693 62.1044 132.535C60.0911 129.342 64.1042 121.993 72.8462 112.864C74.9076 110.711 76.6773 108.95 76.7786 108.95C76.8802 108.95 77.8644 109.813 78.9659 110.867ZM140.811 111.498C146.51 113.934 147.973 121.789 143.52 126.043L142.555 126.965L141.514 125.961C140.212 124.704 138.471 123.967 136.807 123.967C135.719 123.967 135.311 123.754 134.126 122.574C133.085 121.535 132.306 121.079 131.069 120.784C130.157 120.565 129.203 120.466 128.95 120.563C127.916 120.958 128.133 117.861 129.302 115.547C131.365 111.461 136.5 109.655 140.811 111.498ZM53.4842 117.763C54.1822 118.602 56.5029 120.079 58.1111 120.709L59.6238 121.301L52.9371 123.641C49.2599 124.927 45.2169 126.326 43.9535 126.751L41.6563 127.522L40.5743 126.814C39.6897 126.236 39.484 125.891 39.4452 124.919L39.3975 123.73L46.029 120.515C49.6765 118.747 52.7509 117.291 52.8618 117.279C52.9724 117.267 53.2525 117.485 53.4842 117.763ZM117.34 120.725C120.636 122.544 123.408 124.157 123.502 124.307C123.63 124.514 122.336 127.532 121.901 128.04C121.863 128.084 120.042 127.424 117.853 126.573C115.664 125.722 111.721 124.192 109.09 123.172L104.306 121.317L105.839 120.717C107.473 120.077 109.786 118.605 110.495 117.753C110.732 117.468 111.021 117.277 111.137 117.327C111.254 117.376 114.045 118.905 117.34 120.725ZM34.2164 124.107C34.427 124.36 34.5526 124.965 34.4959 125.45C34.4132 126.158 33.979 126.573 32.3095 127.54C29.9549 128.904 29.1284 129.029 28.3243 128.143C27.4471 127.177 27.9743 126.335 30.327 124.942C32.6194 123.584 33.6049 123.373 34.2164 124.107ZM130.492 125.65C131.354 126.278 131.249 127.265 130.059 129.717C128.842 132.225 127.959 132.792 126.841 131.783C126.007 131.031 126.032 130.833 127.31 128.035C128.581 125.257 129.257 124.75 130.492 125.65ZM138.007 129.143C138.646 129.78 138.447 130.901 137.287 133.198C136.611 134.535 135.934 135.45 135.545 135.552C134.736 135.762 133.584 134.974 133.584 134.211C133.584 133.49 135.103 130.078 135.762 129.318C136.322 128.673 137.447 128.585 138.007 129.143ZM38.3841 131.138C39.2058 132.125 38.6292 133.024 36.2503 134.466C34.4712 135.544 33.7511 135.817 33.1117 135.657C32.6553 135.543 32.2006 135.238 32.1009 134.979C31.6939 133.921 32.3156 133.047 34.2994 131.887C36.4483 130.63 37.7607 130.389 38.3841 131.138Z" stroke="#32383C" stroke-width="2" mask="url(#path-1-inside-1_1_3080)"/>
<path fill-rule="evenodd" clip-rule="evenodd" d="M66.7001 63.0736L65.8008 63.8449V68.8525V73.8601L66.7001 74.6313C67.799 75.5735 68.5041 75.6023 69.5928 74.7486C70.3857 74.1265 70.4309 73.9271 70.5174 70.6749L70.6081 67.255H81.9855H93.3628V78.0947V88.9342L91.0726 89.4956C88.3721 90.1572 85.2525 91.6516 83.3405 93.1989L81.9717 94.307L80.8413 93.3178C79.236 91.9126 75.5731 90.1509 72.8961 89.4962L70.6081 88.9367L70.4479 85.8168C70.3139 83.21 70.1854 82.6227 69.6656 82.2448C68.7964 81.6128 67.4516 81.6812 66.5575 82.4032C65.8245 82.995 65.8008 83.1605 65.8008 87.7032C65.8008 93.275 65.8697 93.3929 69.3486 93.7644C73.3627 94.1929 76.0077 95.4188 79.1783 98.3202C81.6092 100.545 82.3867 100.563 84.6487 98.4503C87.6671 95.6307 90.8633 94.1248 94.6505 93.7379C95.9216 93.6082 97.0519 93.2951 97.4708 92.9567L98.1701 92.3925V78.1187V63.8449L97.2708 63.074L96.3715 62.3027H81.9855H67.5994L66.7001 63.0736Z" fill="#32383C"/>
</svg>
