<svg width="76" height="86" viewBox="0 0 76 86" fill="none" xmlns="http://www.w3.org/2000/svg">
<mask id="path-1-inside-1_676_6012" fill="white">
<path fill-rule="evenodd" clip-rule="evenodd" d="M36.2483 0.313188C32.754 1.1832 30.4035 4.25248 30.5145 7.80062L30.5509 8.96329L21.5011 14.1721L12.4514 19.381L11.8317 18.9551C8.77194 16.8528 4.57653 17.3025 2.06522 20.0019C-0.144984 22.3774 -0.613664 25.5453 0.81641 28.4423C1.41761 29.6602 2.98656 31.2156 4.17461 31.7712L4.95291 32.1353V42.5887V53.0423L3.94444 53.5771C2.72434 54.2242 1.30378 55.7031 0.717433 56.9367C-1.59342 61.7977 1.9806 67.5046 7.37308 67.5644C8.96673 67.5822 10.1585 67.2588 11.5269 66.4376L12.5095 65.8479L21.5301 71.0399L30.5509 76.2321L30.5145 77.3948C30.3963 81.1723 33.0345 84.3384 36.8413 84.988C41.4148 85.7685 45.6262 82.0735 45.4898 77.4004L45.456 76.2432L46.1932 75.8024C46.5986 75.5601 50.6745 73.2131 55.2505 70.5872L63.5706 65.8127L64.0184 66.1421C65.4064 67.1634 67.6074 67.775 69.2004 67.5822C74.4061 66.952 77.4819 61.5594 75.2787 56.9251C74.6973 55.7022 73.2731 54.2221 72.0572 53.5771L71.0487 53.0423V42.5887V32.1353L71.827 31.7712C72.2551 31.5711 73.07 30.9746 73.638 30.446C74.8779 29.2918 75.6222 27.9 75.9023 26.2123C76.7069 21.364 72.3755 17.0184 67.4188 17.7011C66.2187 17.8664 65.4514 18.1569 64.3388 18.8674L63.5502 19.371L55.2403 14.6024C50.6698 11.9796 46.5986 9.63531 46.1932 9.39298L45.456 8.95216L45.4898 7.79497C45.6335 2.87322 41.0077 -0.871906 36.2483 0.313188ZM39.2353 5.43641C40.1244 5.94384 40.5445 6.74824 40.4545 7.77139C40.3721 8.71 39.9546 9.34747 39.1573 9.75191C37.571 10.5568 35.7412 9.5903 35.5433 7.84314C35.4289 6.83311 35.845 6.00064 36.7275 5.47428C37.5824 4.96437 38.3864 4.95224 39.2353 5.43641ZM34.0901 13.9462C34.6238 14.2659 35.1585 14.5275 35.2787 14.5275C35.4561 14.5275 35.4965 16.2521 35.494 23.7043L35.4908 32.8811L33.1398 34.2246L30.7887 35.5684L22.9198 31.0462L15.0509 26.5241V25.0811V23.638L16.8869 22.5865C17.8967 22.008 21.915 19.6982 25.8165 17.4536C29.718 15.2088 32.9573 13.3706 33.0151 13.3687C33.0728 13.3665 33.5565 13.6264 34.0901 13.9462ZM52.0211 18.5003L60.9508 23.6344V25.0822V26.5301L53.106 31.05L45.2613 35.5698L44.4268 35.0918C43.9678 34.8291 42.8991 34.224 42.052 33.7474L40.5118 32.8811L40.5081 23.7377L40.5044 14.5943L41.0469 14.3986C41.3453 14.291 41.8522 14.0181 42.1735 13.792C42.4948 13.566 42.8328 13.3778 42.9246 13.3738C43.0164 13.3696 47.1099 15.6767 52.0211 18.5003ZM8.87526 23.0049C9.58095 23.4316 9.96017 24.1572 9.96017 25.0806C9.96017 26.9212 8.23149 28.0793 6.57309 27.3493C5.21729 26.7523 4.66916 25.4274 5.24416 24.1365C5.62004 23.2932 5.8886 23.0426 6.74567 22.7356C7.46088 22.4793 8.15054 22.5665 8.87526 23.0049ZM69.7969 22.9771C70.5158 23.3763 71.0945 24.567 70.9689 25.3893C70.6166 27.6972 67.5882 28.3512 66.3638 26.3838C65.941 25.7044 65.9353 24.4077 66.3524 23.7782C67.1509 22.573 68.5027 22.2586 69.7969 22.9771ZM20.392 35.3416L28.2367 39.8623V42.5972V45.3321L20.3355 49.8737L12.4343 54.4154L11.8232 53.9998C11.487 53.7713 10.9304 53.4529 10.5861 53.2923L9.96017 53.0003V42.5922V32.1842L10.6328 31.8824C11.0027 31.7163 11.5431 31.406 11.8335 31.1927C12.1241 30.9795 12.4035 30.8085 12.4544 30.8129C12.5055 30.8173 16.0774 32.8552 20.392 35.3416ZM64.1681 31.1927C64.4585 31.406 64.999 31.7163 65.3688 31.8824L66.0415 32.1842V42.5922V53.0003L65.4156 53.2923C65.0714 53.4529 64.5154 53.7708 64.1804 53.9985L63.5711 54.4128L57.5875 50.9698C54.2964 49.0761 50.7401 47.029 49.6844 46.4204L47.765 45.3139V42.5964V39.8789L49.8513 38.6788C50.9988 38.0189 54.5289 35.9816 57.696 34.1514C60.8631 32.3213 63.4961 30.8197 63.5472 30.8144C63.5981 30.8092 63.8775 30.9795 64.1681 31.1927ZM40.44 38.5667L42.6743 39.8506V42.5977V45.3447L40.44 46.6287C39.2111 47.3349 38.1177 47.9128 38.01 47.9128C37.9023 47.9128 36.8053 47.3334 35.5721 46.6255L33.33 45.3383V42.5977L33.3302 39.8571L35.5402 38.5775C36.7558 37.8738 37.8529 37.2944 37.9781 37.2903C38.1033 37.2861 39.2111 37.8605 40.44 38.5667ZM33.9533 51.442L35.497 52.3143L35.4932 61.4496L35.4893 70.5848L34.7004 70.9479C34.2666 71.1476 33.7141 71.4396 33.4726 71.597L33.0338 71.8832L25.7113 67.6768C21.6842 65.3633 17.638 63.0398 16.72 62.5134L15.0509 61.5562V60.1135V58.6709L22.8956 54.148L30.7403 49.625L31.5748 50.0973C32.0338 50.357 33.1041 50.9621 33.9533 51.442ZM56.2773 55.9726L60.9508 58.6572V60.1092V61.561L52.0211 66.695C47.1099 69.5187 43.0443 71.8294 42.9865 71.8297C42.9288 71.8302 42.4451 71.569 41.9115 71.2492C41.3779 70.9295 40.8431 70.6679 40.7229 70.6679C40.5455 70.6679 40.5056 68.945 40.5108 61.4911L40.5171 52.3143L42.8806 50.9701L45.244 49.626L48.4239 51.4569C50.173 52.464 53.7069 54.496 56.2773 55.9726ZM8.87526 58.0511C9.58095 58.4778 9.96017 59.2035 9.96017 60.1268C9.96017 61.9675 8.23149 63.1255 6.57309 62.3955C5.21729 61.7985 4.66916 60.4736 5.24416 59.1827C5.62004 58.3394 5.8886 58.0888 6.74567 57.7818C7.46088 57.5256 8.15054 57.6128 8.87526 58.0511ZM69.7969 58.0233C70.5158 58.4225 71.0945 59.6132 70.9689 60.4356C70.6166 62.7435 67.5882 63.3974 66.3638 61.43C65.941 60.7506 65.9353 59.4539 66.3524 58.8244C67.1509 57.6192 68.5027 57.3048 69.7969 58.0233ZM39.4736 75.5978C40.9157 76.6495 40.7884 78.8729 39.2353 79.759C38.3877 80.2425 37.6119 80.2322 36.7437 79.7258C35.0514 78.739 35.1076 76.3439 36.8443 75.434C37.5632 75.0573 38.8419 75.137 39.4736 75.5978Z"/>
</mask>
<path fill-rule="evenodd" clip-rule="evenodd" d="M36.2483 0.313188C32.754 1.1832 30.4035 4.25248 30.5145 7.80062L30.5509 8.96329L21.5011 14.1721L12.4514 19.381L11.8317 18.9551C8.77194 16.8528 4.57653 17.3025 2.06522 20.0019C-0.144984 22.3774 -0.613664 25.5453 0.81641 28.4423C1.41761 29.6602 2.98656 31.2156 4.17461 31.7712L4.95291 32.1353V42.5887V53.0423L3.94444 53.5771C2.72434 54.2242 1.30378 55.7031 0.717433 56.9367C-1.59342 61.7977 1.9806 67.5046 7.37308 67.5644C8.96673 67.5822 10.1585 67.2588 11.5269 66.4376L12.5095 65.8479L21.5301 71.0399L30.5509 76.2321L30.5145 77.3948C30.3963 81.1723 33.0345 84.3384 36.8413 84.988C41.4148 85.7685 45.6262 82.0735 45.4898 77.4004L45.456 76.2432L46.1932 75.8024C46.5986 75.5601 50.6745 73.2131 55.2505 70.5872L63.5706 65.8127L64.0184 66.1421C65.4064 67.1634 67.6074 67.775 69.2004 67.5822C74.4061 66.952 77.4819 61.5594 75.2787 56.9251C74.6973 55.7022 73.2731 54.2221 72.0572 53.5771L71.0487 53.0423V42.5887V32.1353L71.827 31.7712C72.2551 31.5711 73.07 30.9746 73.638 30.446C74.8779 29.2918 75.6222 27.9 75.9023 26.2123C76.7069 21.364 72.3755 17.0184 67.4188 17.7011C66.2187 17.8664 65.4514 18.1569 64.3388 18.8674L63.5502 19.371L55.2403 14.6024C50.6698 11.9796 46.5986 9.63531 46.1932 9.39298L45.456 8.95216L45.4898 7.79497C45.6335 2.87322 41.0077 -0.871906 36.2483 0.313188ZM39.2353 5.43641C40.1244 5.94384 40.5445 6.74824 40.4545 7.77139C40.3721 8.71 39.9546 9.34747 39.1573 9.75191C37.571 10.5568 35.7412 9.5903 35.5433 7.84314C35.4289 6.83311 35.845 6.00064 36.7275 5.47428C37.5824 4.96437 38.3864 4.95224 39.2353 5.43641ZM34.0901 13.9462C34.6238 14.2659 35.1585 14.5275 35.2787 14.5275C35.4561 14.5275 35.4965 16.2521 35.494 23.7043L35.4908 32.8811L33.1398 34.2246L30.7887 35.5684L22.9198 31.0462L15.0509 26.5241V25.0811V23.638L16.8869 22.5865C17.8967 22.008 21.915 19.6982 25.8165 17.4536C29.718 15.2088 32.9573 13.3706 33.0151 13.3687C33.0728 13.3665 33.5565 13.6264 34.0901 13.9462ZM52.0211 18.5003L60.9508 23.6344V25.0822V26.5301L53.106 31.05L45.2613 35.5698L44.4268 35.0918C43.9678 34.8291 42.8991 34.224 42.052 33.7474L40.5118 32.8811L40.5081 23.7377L40.5044 14.5943L41.0469 14.3986C41.3453 14.291 41.8522 14.0181 42.1735 13.792C42.4948 13.566 42.8328 13.3778 42.9246 13.3738C43.0164 13.3696 47.1099 15.6767 52.0211 18.5003ZM8.87526 23.0049C9.58095 23.4316 9.96017 24.1572 9.96017 25.0806C9.96017 26.9212 8.23149 28.0793 6.57309 27.3493C5.21729 26.7523 4.66916 25.4274 5.24416 24.1365C5.62004 23.2932 5.8886 23.0426 6.74567 22.7356C7.46088 22.4793 8.15054 22.5665 8.87526 23.0049ZM69.7969 22.9771C70.5158 23.3763 71.0945 24.567 70.9689 25.3893C70.6166 27.6972 67.5882 28.3512 66.3638 26.3838C65.941 25.7044 65.9353 24.4077 66.3524 23.7782C67.1509 22.573 68.5027 22.2586 69.7969 22.9771ZM20.392 35.3416L28.2367 39.8623V42.5972V45.3321L20.3355 49.8737L12.4343 54.4154L11.8232 53.9998C11.487 53.7713 10.9304 53.4529 10.5861 53.2923L9.96017 53.0003V42.5922V32.1842L10.6328 31.8824C11.0027 31.7163 11.5431 31.406 11.8335 31.1927C12.1241 30.9795 12.4035 30.8085 12.4544 30.8129C12.5055 30.8173 16.0774 32.8552 20.392 35.3416ZM64.1681 31.1927C64.4585 31.406 64.999 31.7163 65.3688 31.8824L66.0415 32.1842V42.5922V53.0003L65.4156 53.2923C65.0714 53.4529 64.5154 53.7708 64.1804 53.9985L63.5711 54.4128L57.5875 50.9698C54.2964 49.0761 50.7401 47.029 49.6844 46.4204L47.765 45.3139V42.5964V39.8789L49.8513 38.6788C50.9988 38.0189 54.5289 35.9816 57.696 34.1514C60.8631 32.3213 63.4961 30.8197 63.5472 30.8144C63.5981 30.8092 63.8775 30.9795 64.1681 31.1927ZM40.44 38.5667L42.6743 39.8506V42.5977V45.3447L40.44 46.6287C39.2111 47.3349 38.1177 47.9128 38.01 47.9128C37.9023 47.9128 36.8053 47.3334 35.5721 46.6255L33.33 45.3383V42.5977L33.3302 39.8571L35.5402 38.5775C36.7558 37.8738 37.8529 37.2944 37.9781 37.2903C38.1033 37.2861 39.2111 37.8605 40.44 38.5667ZM33.9533 51.442L35.497 52.3143L35.4932 61.4496L35.4893 70.5848L34.7004 70.9479C34.2666 71.1476 33.7141 71.4396 33.4726 71.597L33.0338 71.8832L25.7113 67.6768C21.6842 65.3633 17.638 63.0398 16.72 62.5134L15.0509 61.5562V60.1135V58.6709L22.8956 54.148L30.7403 49.625L31.5748 50.0973C32.0338 50.357 33.1041 50.9621 33.9533 51.442ZM56.2773 55.9726L60.9508 58.6572V60.1092V61.561L52.0211 66.695C47.1099 69.5187 43.0443 71.8294 42.9865 71.8297C42.9288 71.8302 42.4451 71.569 41.9115 71.2492C41.3779 70.9295 40.8431 70.6679 40.7229 70.6679C40.5455 70.6679 40.5056 68.945 40.5108 61.4911L40.5171 52.3143L42.8806 50.9701L45.244 49.626L48.4239 51.4569C50.173 52.464 53.7069 54.496 56.2773 55.9726ZM8.87526 58.0511C9.58095 58.4778 9.96017 59.2035 9.96017 60.1268C9.96017 61.9675 8.23149 63.1255 6.57309 62.3955C5.21729 61.7985 4.66916 60.4736 5.24416 59.1827C5.62004 58.3394 5.8886 58.0888 6.74567 57.7818C7.46088 57.5256 8.15054 57.6128 8.87526 58.0511ZM69.7969 58.0233C70.5158 58.4225 71.0945 59.6132 70.9689 60.4356C70.6166 62.7435 67.5882 63.3974 66.3638 61.43C65.941 60.7506 65.9353 59.4539 66.3524 58.8244C67.1509 57.6192 68.5027 57.3048 69.7969 58.0233ZM39.4736 75.5978C40.9157 76.6495 40.7884 78.8729 39.2353 79.759C38.3877 80.2425 37.6119 80.2322 36.7437 79.7258C35.0514 78.739 35.1076 76.3439 36.8443 75.434C37.5632 75.0573 38.8419 75.137 39.4736 75.5978Z" stroke="black" stroke-width="2" mask="url(#path-1-inside-1_676_6012)"/>
</svg>
