<svg width="71" height="85" viewBox="0 0 71 85" fill="none" xmlns="http://www.w3.org/2000/svg">
<path d="M59.6606 60.2976V60.6729L60.0211 60.7777L60.9112 61.0364C60.9113 61.0364 60.9113 61.0364 60.9113 61.0364C64.5379 62.0909 67.5786 64.9659 68.8842 68.5848C70.9094 74.1996 68.3344 80.6211 63.0208 83.2299C62.7801 83.3481 62.5832 83.4508 62.4094 83.5414C62.0173 83.7459 61.743 83.8889 61.3482 84.0104C60.7917 84.1815 60.0024 84.3001 58.3921 84.3753C55.6385 84.5038 50.6194 84.5023 40.5457 84.4991C38.8414 84.4986 36.9924 84.498 34.9853 84.498H10.4682L9.29916 84.131C5.07952 82.806 2.19091 79.8651 0.876371 75.5408L0.397987 75.6863L0.87637 75.5408C0.823289 75.3662 0.77051 75.1221 0.728363 74.2673C0.68631 73.4145 0.655908 71.99 0.632981 69.4754C0.58716 64.4498 0.571373 55.1034 0.548356 37.347L0.500648 0.5H30.0803H59.6606V30.1488V60.2976ZM12.9693 60.6553L33.777 60.6141L55.0933 60.5719L55.5916 60.5709L55.5923 60.0727L55.6344 32.5293L55.6764 4.98598L55.6772 4.48522H55.1764H52.1411H49.1056H48.7963L48.6582 4.76194L46.1701 9.74716L43.8201 14.4557H30.0444H16.2683L13.9129 9.74676L11.4193 4.76154L11.2811 4.48522H10.9721H7.97951H4.98705H4.48642L4.48705 4.98585L4.53042 39.5085C4.53445 42.7017 4.53728 45.6079 4.53985 48.254C4.55291 61.6812 4.55946 68.4076 4.68405 71.9288C4.75802 74.0194 4.87387 75.0457 5.08535 75.6845C5.19819 76.0254 5.33646 76.2533 5.49064 76.4622C5.55196 76.5453 5.60557 76.6134 5.65763 76.6795C5.74433 76.7896 5.82674 76.8942 5.93336 77.0539L6.34918 76.7762L5.93337 77.0539C7.24439 79.017 9.53052 80.3438 11.9283 80.5446C16.9813 80.9679 21.2768 76.335 20.4362 71.3519C19.8522 67.8899 16.9968 65.0443 13.6608 64.6765L13.0434 64.6083L13.0057 62.5974L12.9693 60.6553ZM41.0485 10.4704H41.3572L41.4955 10.1944L42.744 7.70175L43.9925 5.20914L44.355 4.48522H43.5454H30.0841C26.3817 4.48522 23.0154 4.4944 20.5742 4.5092C19.3539 4.5166 18.3637 4.5254 17.6781 4.53518C17.3357 4.54007 17.0671 4.54523 16.8831 4.55064C16.7919 4.55332 16.7172 4.55619 16.6633 4.55937C16.638 4.56087 16.6086 4.56293 16.5818 4.56611C16.5713 4.56735 16.5438 4.57068 16.5121 4.5782C16.5003 4.58101 16.4586 4.5909 16.41 4.61397C16.3871 4.6248 16.3338 4.65175 16.2793 4.70345C16.2251 4.75485 16.123 4.87724 16.123 5.06681C16.123 5.12012 16.1318 5.16149 16.1346 5.17459C16.1386 5.1933 16.1429 5.20853 16.1457 5.21782C16.1513 5.23655 16.1572 5.25277 16.1611 5.26307C16.1692 5.28472 16.1788 5.30789 16.188 5.32923C16.2068 5.37325 16.2328 5.43091 16.264 5.49835C16.3267 5.63428 16.4164 5.82305 16.5258 6.04986C16.7449 6.50412 17.0464 7.1181 17.3777 7.78252L18.5798 10.1935L18.7178 10.4704H19.0273H30.0379H41.0485ZM60.9163 65.3034L60.9162 65.3033L59.793 64.7714L59.692 64.7236L59.5802 64.7233L41.0801 64.6789L22.5799 64.6346L21.6122 64.6322L22.1702 65.4229L22.4948 65.8827L22.4949 65.8828C22.6512 66.1041 23.009 66.7323 23.282 67.2757C25.0623 70.8194 24.8943 75.2882 22.8551 78.6747L22.2047 79.7549L21.7496 80.5106L22.6318 80.5128L40.44 80.5563C46.5542 80.5712 51.0763 80.568 54.1448 80.5458C55.6788 80.5347 56.8518 80.5188 57.6798 80.4979C58.0935 80.4874 58.424 80.4757 58.6716 80.4625C58.9049 80.45 59.1001 80.4349 59.2179 80.4106C63.2839 79.5722 66.173 75.461 65.5034 71.421C65.064 68.7688 63.3231 66.4437 60.9163 65.3034ZM18.1201 24.5916V22.5166V20.4415L20.0618 20.4778H20.0618L22.0222 20.5147V22.5166V24.5185L20.0618 24.5553H20.0618L18.1201 24.5916ZM30.0322 24.5553L28.0905 24.5916V22.5166V20.4415L30.0322 20.4778H30.0322L31.9927 20.5147V22.5166V24.5185L30.0322 24.5553H30.0322ZM38.0974 22.6808C38.0974 22.6807 38.0974 22.6807 38.0974 22.6807C38.0848 22.0476 38.0826 21.4496 38.0891 20.9972C38.0919 20.799 38.0964 20.6316 38.1022 20.5028C38.1468 20.497 38.2004 20.4912 38.2644 20.4857C38.6284 20.4543 39.2169 20.4409 40.1315 20.4409H42.0462V22.5211V24.5916L40.1045 24.5553L38.1343 24.5183L38.0974 22.6808ZM37.9123 20.542C37.9118 20.5417 37.9167 20.5394 37.9287 20.5356C37.9188 20.5403 37.9128 20.5422 37.9123 20.542ZM38.1192 20.2715C38.1191 20.2717 38.1189 20.2732 38.1184 20.2758C38.1189 20.2725 38.1192 20.2712 38.1192 20.2715Z" stroke="black"/>
</svg>
