<svg width="86" height="85" viewBox="0 0 86 85" fill="none" xmlns="http://www.w3.org/2000/svg">
<mask id="path-1-inside-1_676_6020" fill="white">
<path fill-rule="evenodd" clip-rule="evenodd" d="M14.9721 17.4316V34.8633H35.392H55.812V37.9346V41.0059H58.0957H60.3796L65.2343 36.1489L70.0893 31.2918V15.646V0H42.5307H14.9721V17.4316ZM65.1088 17.1434V29.3066L62.9506 31.46L60.7924 33.6133V31.7482V29.8828H40.3725H19.9526V17.4316V4.98047H42.5307H65.1088V17.1434ZM44.4401 13.6131C41.9759 16.0786 39.8857 18.0957 39.7953 18.0957C39.7048 18.0957 38.844 17.3113 37.8821 16.3524L36.1335 14.609L34.3948 16.3537L32.6563 18.0982L36.2244 21.6665L39.7928 25.2347L46.0999 18.9259L52.4068 12.6174L50.6635 10.874L48.9202 9.13069L44.4401 13.6131ZM40.3136 43.593C37.8353 44.193 35.4237 46.1087 34.3179 48.3559C33.5421 49.9327 33.2396 51.4565 33.2396 53.7891C33.2396 56.9651 33.8795 59.04 35.4505 60.9589C35.8758 61.4784 36.1617 61.9416 36.0858 61.9884C36.0101 62.0352 34.1981 62.8666 32.0593 63.836C29.9203 64.8054 27.9217 65.7437 27.6177 65.9215L27.065 66.2446L25.3503 65.4747L23.6353 64.7049L24.3495 63.6617C25.5151 61.9592 25.7947 61.0184 25.89 58.4792C26.0283 54.7928 25.421 52.9173 23.4537 50.9547C19.8241 47.3337 14.0914 47.7693 10.9693 51.9035C9.81634 53.4301 9.47385 54.5844 9.3759 57.2754C9.26035 60.4448 9.64949 61.9579 11.0883 63.9339L11.6453 64.6988L8.25148 66.2389C4.51098 67.9361 3.63491 68.459 2.50933 69.6653C1.57698 70.6647 1.00174 71.6366 0.508008 73.0469C0.150742 74.0667 0.126504 74.4241 0.0650781 79.563L0 85H42.5307H85.0614L84.9963 79.563C84.9348 74.4127 84.9113 74.069 84.5514 73.0469C84.0266 71.5564 83.2104 70.2683 82.1731 69.2936C80.996 68.1878 80.6225 67.9749 76.8023 66.2354C74.9919 65.411 73.487 64.7127 73.4579 64.6838C73.429 64.6548 73.6379 64.3395 73.9223 63.9831C75.3351 62.212 75.7992 60.4509 75.6905 57.2754C75.6288 55.4738 75.5394 54.8388 75.2351 54.0381C73.0273 48.228 65.9374 46.6225 61.6077 50.952C59.6438 52.9162 59.042 54.7712 59.1693 58.4685C59.2571 61.0161 59.5304 61.9361 60.7121 63.662L61.4264 64.7056L59.7259 65.4835L58.0253 66.2615L57.4582 65.93C57.1462 65.7477 55.1411 64.8054 53.0022 63.836C50.8634 62.8666 49.0513 62.0352 48.9756 61.9884C48.8997 61.9416 49.1856 61.4784 49.6109 60.9589C50.0361 60.4396 50.5981 59.5599 50.8599 59.0039C51.7348 57.1454 51.8216 56.2922 51.8248 49.5142L51.8276 43.3301L46.5566 43.3439C42.6157 43.3543 41.0404 43.4171 40.3136 43.593ZM46.8184 52.2534C46.7673 55.9202 46.7384 56.2428 46.4049 56.8604C44.9917 59.4766 41.6634 60.0581 39.5693 58.0545C38.4487 56.9824 38.2973 56.4747 38.2973 53.7891C38.2973 51.6237 38.3342 51.3129 38.6639 50.6965C39.1111 49.8605 40.3325 48.7561 41.0723 48.5192C41.3723 48.4231 42.8002 48.3368 44.2455 48.3275L46.8735 48.3105L46.8184 52.2534ZM19.4891 54.0522C19.8669 54.3183 20.35 54.8653 20.5624 55.2678C20.8949 55.8976 20.9487 56.2391 20.9487 57.7218C20.9487 59.6172 20.7417 60.3536 19.9853 61.15C19.3093 61.8617 18.6409 62.1435 17.6284 62.1435C16.2259 62.1435 15.1222 61.3931 14.5659 60.0615C14.2629 59.3361 14.2143 56.7068 14.4859 55.729C14.6994 54.9598 15.7557 53.8626 16.5013 53.6357C17.4738 53.3397 18.7252 53.5141 19.4891 54.0522ZM69.2498 54.0122C70.3521 54.7417 70.6556 55.4409 70.7288 57.4215C70.8028 59.4203 70.6245 60.1866 69.8911 61.022C69.1751 61.8377 68.5047 62.1435 67.4331 62.1435C66.3614 62.1435 65.6911 61.8377 64.975 61.022C64.2449 60.1905 64.0717 59.4421 64.1381 57.406C64.1919 55.7598 64.2288 55.5956 64.6938 54.9361C65.4291 53.893 66.4376 53.4071 67.6517 53.511C68.3017 53.5666 68.8241 53.7305 69.2498 54.0122ZM48.8949 67.4349C55.7894 70.5694 56.2858 70.8771 57.0893 72.5133C57.5442 73.4398 57.5565 73.5384 57.6116 76.7407L57.6682 80.0195H42.5307H27.3932L27.4499 76.7407C27.505 73.5348 27.5168 73.4407 27.9743 72.509C28.7574 70.9142 29.2732 70.5932 36.07 67.4683C39.4865 65.8976 42.3564 64.605 42.4477 64.5957C42.539 64.5866 45.4403 65.864 48.8949 67.4349ZM20.4274 68.7104C22.0007 69.4297 23.3328 70.0631 23.3875 70.1179C23.4421 70.1725 23.3629 70.5419 23.2113 70.9386C22.6317 72.456 22.4486 73.9038 22.4456 76.9897L22.4428 80.0195H13.7096H4.97632L5.03725 77.4048C5.09153 75.0686 5.13951 74.7052 5.48814 73.9937C5.7028 73.5557 6.1273 72.9954 6.43178 72.7485C6.73608 72.5018 9.36112 71.2063 12.2652 69.8698C15.1693 68.5332 17.5502 67.4314 17.5562 67.4211C17.562 67.4108 18.8541 67.9909 20.4274 68.7104ZM72.7909 69.8695C75.6709 71.1809 78.289 72.4695 78.6089 72.7331C78.9286 72.9967 79.3643 73.5675 79.5769 74.0013C79.9211 74.7037 79.9701 75.0761 80.0242 77.4048L80.0851 80.0195H71.3519H62.6186L62.6158 76.9897C62.6128 73.9038 62.4297 72.456 61.8501 70.9386C61.6985 70.5419 61.616 70.1758 61.6667 70.1252C61.8113 69.9806 67.3379 67.4374 67.4523 67.4626C67.5086 67.4752 69.911 68.5583 72.7909 69.8695Z"/>
</mask>
<path fill-rule="evenodd" clip-rule="evenodd" d="M14.9721 17.4316V34.8633H35.392H55.812V37.9346V41.0059H58.0957H60.3796L65.2343 36.1489L70.0893 31.2918V15.646V0H42.5307H14.9721V17.4316ZM65.1088 17.1434V29.3066L62.9506 31.46L60.7924 33.6133V31.7482V29.8828H40.3725H19.9526V17.4316V4.98047H42.5307H65.1088V17.1434ZM44.4401 13.6131C41.9759 16.0786 39.8857 18.0957 39.7953 18.0957C39.7048 18.0957 38.844 17.3113 37.8821 16.3524L36.1335 14.609L34.3948 16.3537L32.6563 18.0982L36.2244 21.6665L39.7928 25.2347L46.0999 18.9259L52.4068 12.6174L50.6635 10.874L48.9202 9.13069L44.4401 13.6131ZM40.3136 43.593C37.8353 44.193 35.4237 46.1087 34.3179 48.3559C33.5421 49.9327 33.2396 51.4565 33.2396 53.7891C33.2396 56.9651 33.8795 59.04 35.4505 60.9589C35.8758 61.4784 36.1617 61.9416 36.0858 61.9884C36.0101 62.0352 34.1981 62.8666 32.0593 63.836C29.9203 64.8054 27.9217 65.7437 27.6177 65.9215L27.065 66.2446L25.3503 65.4747L23.6353 64.7049L24.3495 63.6617C25.5151 61.9592 25.7947 61.0184 25.89 58.4792C26.0283 54.7928 25.421 52.9173 23.4537 50.9547C19.8241 47.3337 14.0914 47.7693 10.9693 51.9035C9.81634 53.4301 9.47385 54.5844 9.3759 57.2754C9.26035 60.4448 9.64949 61.9579 11.0883 63.9339L11.6453 64.6988L8.25148 66.2389C4.51098 67.9361 3.63491 68.459 2.50933 69.6653C1.57698 70.6647 1.00174 71.6366 0.508008 73.0469C0.150742 74.0667 0.126504 74.4241 0.0650781 79.563L0 85H42.5307H85.0614L84.9963 79.563C84.9348 74.4127 84.9113 74.069 84.5514 73.0469C84.0266 71.5564 83.2104 70.2683 82.1731 69.2936C80.996 68.1878 80.6225 67.9749 76.8023 66.2354C74.9919 65.411 73.487 64.7127 73.4579 64.6838C73.429 64.6548 73.6379 64.3395 73.9223 63.9831C75.3351 62.212 75.7992 60.4509 75.6905 57.2754C75.6288 55.4738 75.5394 54.8388 75.2351 54.0381C73.0273 48.228 65.9374 46.6225 61.6077 50.952C59.6438 52.9162 59.042 54.7712 59.1693 58.4685C59.2571 61.0161 59.5304 61.9361 60.7121 63.662L61.4264 64.7056L59.7259 65.4835L58.0253 66.2615L57.4582 65.93C57.1462 65.7477 55.1411 64.8054 53.0022 63.836C50.8634 62.8666 49.0513 62.0352 48.9756 61.9884C48.8997 61.9416 49.1856 61.4784 49.6109 60.9589C50.0361 60.4396 50.5981 59.5599 50.8599 59.0039C51.7348 57.1454 51.8216 56.2922 51.8248 49.5142L51.8276 43.3301L46.5566 43.3439C42.6157 43.3543 41.0404 43.4171 40.3136 43.593ZM46.8184 52.2534C46.7673 55.9202 46.7384 56.2428 46.4049 56.8604C44.9917 59.4766 41.6634 60.0581 39.5693 58.0545C38.4487 56.9824 38.2973 56.4747 38.2973 53.7891C38.2973 51.6237 38.3342 51.3129 38.6639 50.6965C39.1111 49.8605 40.3325 48.7561 41.0723 48.5192C41.3723 48.4231 42.8002 48.3368 44.2455 48.3275L46.8735 48.3105L46.8184 52.2534ZM19.4891 54.0522C19.8669 54.3183 20.35 54.8653 20.5624 55.2678C20.8949 55.8976 20.9487 56.2391 20.9487 57.7218C20.9487 59.6172 20.7417 60.3536 19.9853 61.15C19.3093 61.8617 18.6409 62.1435 17.6284 62.1435C16.2259 62.1435 15.1222 61.3931 14.5659 60.0615C14.2629 59.3361 14.2143 56.7068 14.4859 55.729C14.6994 54.9598 15.7557 53.8626 16.5013 53.6357C17.4738 53.3397 18.7252 53.5141 19.4891 54.0522ZM69.2498 54.0122C70.3521 54.7417 70.6556 55.4409 70.7288 57.4215C70.8028 59.4203 70.6245 60.1866 69.8911 61.022C69.1751 61.8377 68.5047 62.1435 67.4331 62.1435C66.3614 62.1435 65.6911 61.8377 64.975 61.022C64.2449 60.1905 64.0717 59.4421 64.1381 57.406C64.1919 55.7598 64.2288 55.5956 64.6938 54.9361C65.4291 53.893 66.4376 53.4071 67.6517 53.511C68.3017 53.5666 68.8241 53.7305 69.2498 54.0122ZM48.8949 67.4349C55.7894 70.5694 56.2858 70.8771 57.0893 72.5133C57.5442 73.4398 57.5565 73.5384 57.6116 76.7407L57.6682 80.0195H42.5307H27.3932L27.4499 76.7407C27.505 73.5348 27.5168 73.4407 27.9743 72.509C28.7574 70.9142 29.2732 70.5932 36.07 67.4683C39.4865 65.8976 42.3564 64.605 42.4477 64.5957C42.539 64.5866 45.4403 65.864 48.8949 67.4349ZM20.4274 68.7104C22.0007 69.4297 23.3328 70.0631 23.3875 70.1179C23.4421 70.1725 23.3629 70.5419 23.2113 70.9386C22.6317 72.456 22.4486 73.9038 22.4456 76.9897L22.4428 80.0195H13.7096H4.97632L5.03725 77.4048C5.09153 75.0686 5.13951 74.7052 5.48814 73.9937C5.7028 73.5557 6.1273 72.9954 6.43178 72.7485C6.73608 72.5018 9.36112 71.2063 12.2652 69.8698C15.1693 68.5332 17.5502 67.4314 17.5562 67.4211C17.562 67.4108 18.8541 67.9909 20.4274 68.7104ZM72.7909 69.8695C75.6709 71.1809 78.289 72.4695 78.6089 72.7331C78.9286 72.9967 79.3643 73.5675 79.5769 74.0013C79.9211 74.7037 79.9701 75.0761 80.0242 77.4048L80.0851 80.0195H71.3519H62.6186L62.6158 76.9897C62.6128 73.9038 62.4297 72.456 61.8501 70.9386C61.6985 70.5419 61.616 70.1758 61.6667 70.1252C61.8113 69.9806 67.3379 67.4374 67.4523 67.4626C67.5086 67.4752 69.911 68.5583 72.7909 69.8695Z" stroke="black" stroke-width="2" mask="url(#path-1-inside-1_676_6020)"/>
</svg>
